<?xml version="1.0" encoding="UTF-8" standalone="no"?>
<!-- Created with Inkscape (http://www.inkscape.org/) -->

<svg
   version="1.1"
   id="svg1"
   width="133.17041"
   height="162.74933"
   viewBox="0 0 133.17041 162.74933"
   xmlns="http://www.w3.org/2000/svg"
   xmlns:svg="http://www.w3.org/2000/svg">
  <defs
     id="defs1">
    <clipPath
       clipPathUnits="userSpaceOnUse"
       id="clipPath2">
      <path
         d="M 0,0 H 595.276 V 841.89 H 0 Z"
         id="path2" />
    </clipPath>
    <clipPath
       clipPathUnits="userSpaceOnUse"
       id="clipPath4">
      <path
         d="M 0,0 H 595.276 V 841.89 H 0 Z"
         id="path4" />
    </clipPath>
    <clipPath
       clipPathUnits="userSpaceOnUse"
       id="clipPath6">
      <path
         d="M 0,0 H 595.276 V 841.89 H 0 Z"
         id="path6" />
    </clipPath>
    <clipPath
       clipPathUnits="userSpaceOnUse"
       id="clipPath8">
      <path
         d="M 0,0 H 595.276 V 841.89 H 0 Z"
         id="path8" />
    </clipPath>
    <clipPath
       clipPathUnits="userSpaceOnUse"
       id="clipPath10">
      <path
         d="M 0,0 H 595.276 V 841.89 H 0 Z"
         id="path10" />
    </clipPath>
    <clipPath
       clipPathUnits="userSpaceOnUse"
       id="clipPath12">
      <path
         d="M 0,0 H 595.276 V 841.89 H 0 Z"
         id="path12" />
    </clipPath>
    <clipPath
       clipPathUnits="userSpaceOnUse"
       id="clipPath14">
      <path
         d="M 0,0 H 595.276 V 841.89 H 0 Z"
         id="path14" />
    </clipPath>
    <clipPath
       clipPathUnits="userSpaceOnUse"
       id="clipPath16">
      <path
         d="M 0,0 H 595.276 V 841.89 H 0 Z"
         id="path16" />
    </clipPath>
    <clipPath
       clipPathUnits="userSpaceOnUse"
       id="clipPath18">
      <path
         d="M 0,0 H 595.276 V 841.89 H 0 Z"
         id="path18" />
    </clipPath>
    <clipPath
       clipPathUnits="userSpaceOnUse"
       id="clipPath20">
      <path
         d="M 0,0 H 595.276 V 841.89 H 0 Z"
         id="path20" />
    </clipPath>
    <clipPath
       clipPathUnits="userSpaceOnUse"
       id="clipPath22">
      <path
         d="M 0,0 H 595.276 V 841.89 H 0 Z"
         id="path22" />
    </clipPath>
    <clipPath
       clipPathUnits="userSpaceOnUse"
       id="clipPath24">
      <path
         d="M 0,0 H 595.276 V 841.89 H 0 Z"
         id="path24" />
    </clipPath>
    <clipPath
       clipPathUnits="userSpaceOnUse"
       id="clipPath26">
      <path
         d="M 0,0 H 595.276 V 841.89 H 0 Z"
         id="path26" />
    </clipPath>
    <clipPath
       clipPathUnits="userSpaceOnUse"
       id="clipPath28">
      <path
         d="M 0,0 H 595.276 V 841.89 H 0 Z"
         id="path28" />
    </clipPath>
    <clipPath
       clipPathUnits="userSpaceOnUse"
       id="clipPath30">
      <path
         d="M 0,0 H 595.276 V 841.89 H 0 Z"
         id="path30" />
    </clipPath>
    <clipPath
       clipPathUnits="userSpaceOnUse"
       id="clipPath32">
      <path
         d="M 0,0 H 595.276 V 841.89 H 0 Z"
         id="path32" />
    </clipPath>
    <clipPath
       clipPathUnits="userSpaceOnUse"
       id="clipPath34">
      <path
         d="M 0,0 H 595.276 V 841.89 H 0 Z"
         id="path34" />
    </clipPath>
    <clipPath
       clipPathUnits="userSpaceOnUse"
       id="clipPath36">
      <path
         d="M 0,0 H 595.276 V 841.89 H 0 Z"
         id="path36" />
    </clipPath>
    <clipPath
       clipPathUnits="userSpaceOnUse"
       id="clipPath38">
      <path
         d="M 0,0 H 595.276 V 841.89 H 0 Z"
         id="path38" />
    </clipPath>
    <clipPath
       clipPathUnits="userSpaceOnUse"
       id="clipPath40">
      <path
         d="M 0,0 H 595.276 V 841.89 H 0 Z"
         id="path40" />
    </clipPath>
    <clipPath
       clipPathUnits="userSpaceOnUse"
       id="clipPath42">
      <path
         d="M 0,0 H 595.276 V 841.89 H 0 Z"
         id="path42" />
    </clipPath>
    <clipPath
       clipPathUnits="userSpaceOnUse"
       id="clipPath44">
      <path
         d="M 0,0 H 595.276 V 841.89 H 0 Z"
         id="path44" />
    </clipPath>
    <clipPath
       clipPathUnits="userSpaceOnUse"
       id="clipPath46">
      <path
         d="M 0,0 H 595.276 V 841.89 H 0 Z"
         id="path46" />
    </clipPath>
    <clipPath
       clipPathUnits="userSpaceOnUse"
       id="clipPath48">
      <path
         d="M 0,0 H 595.276 V 841.89 H 0 Z"
         id="path48" />
    </clipPath>
    <clipPath
       clipPathUnits="userSpaceOnUse"
       id="clipPath50">
      <path
         d="M 0,0 H 595.276 V 841.89 H 0 Z"
         id="path50" />
    </clipPath>
    <clipPath
       clipPathUnits="userSpaceOnUse"
       id="clipPath52">
      <path
         d="M 0,0 H 595.276 V 841.89 H 0 Z"
         id="path52" />
    </clipPath>
    <clipPath
       clipPathUnits="userSpaceOnUse"
       id="clipPath54">
      <path
         d="M 0,0 H 595.276 V 841.89 H 0 Z"
         id="path54" />
    </clipPath>
    <clipPath
       clipPathUnits="userSpaceOnUse"
       id="clipPath56">
      <path
         d="M 0,0 H 595.276 V 841.89 H 0 Z"
         id="path56" />
    </clipPath>
    <clipPath
       clipPathUnits="userSpaceOnUse"
       id="clipPath58">
      <path
         d="M 0,0 H 595.276 V 841.89 H 0 Z"
         id="path58" />
    </clipPath>
    <clipPath
       clipPathUnits="userSpaceOnUse"
       id="clipPath60">
      <path
         d="M 0,0 H 595.276 V 841.89 H 0 Z"
         id="path60" />
    </clipPath>
    <clipPath
       clipPathUnits="userSpaceOnUse"
       id="clipPath62">
      <path
         d="M 0,0 H 595.276 V 841.89 H 0 Z"
         id="path62" />
    </clipPath>
    <clipPath
       clipPathUnits="userSpaceOnUse"
       id="clipPath64">
      <path
         d="M 0,0 H 595.276 V 841.89 H 0 Z"
         id="path64" />
    </clipPath>
    <clipPath
       clipPathUnits="userSpaceOnUse"
       id="clipPath66">
      <path
         d="M 0,0 H 595.276 V 841.89 H 0 Z"
         id="path66" />
    </clipPath>
  </defs>
  <g
     id="g1"
     transform="translate(-331.22573,-483.24881)">
    <path
       id="path1"
       d="m 315.2676,391.9991 c 0,1.152 -0.904,2.086 -2.027,2.086 h -3.207 c 0.699,-0.623 0.908,-1.125 0.908,-2.109 v -14.012 h 4.326 v 6.777 h 4.926 v -6.777 h 4.314 v 16.072 h -4.314 v -6.562 h -4.926 z"
       style="fill:#231f20;fill-opacity:1;fill-rule:nonzero;stroke:none"
       transform="matrix(1.3333333,0,0,-1.3333333,0,1128.1084)"
       clip-path="url(#clipPath2)" />
    <path
       id="path3"
       d="m 278.6963,384.4757 h -3.681 l 1.817,5.502 z m 2.205,-6.512 h 4.587 c 0,0 -5.073,14.266 -5.073,14.27 -0.572,1.601 -1.801,1.851 -2.195,1.851 h -4.429 c 0.676,-0.554 0.916,-0.914 0.916,-1.474 0,-0.338 -0.08,-0.602 -0.447,-1.692 l -4.386,-12.955 h 2.995 l 1.326,4.018 h 5.344 z"
       style="fill:#231f20;fill-opacity:1;fill-rule:nonzero;stroke:none"
       transform="matrix(1.3333333,0,0,-1.3333333,0,1128.1084)"
       clip-path="url(#clipPath4)" />
    <path
       id="path5"
       d="m 299.4902,380.2472 v 5.141 c 0,0.986 -0.207,1.486 -0.906,2.113 l 3.306,-0.004 c 1.018,0 1.895,-0.828 1.895,-1.875 v -7.297 c -1.613,-0.473 -3.25,-0.736 -4.746,-0.736 -5.73,0 -9.369,3.343 -9.369,8.287 0,4.824 3.646,8.586 9.449,8.586 1.32,0 2.568,-0.227 3.701,-0.639 v -3.226 c -1.016,0.671 -2.301,1.072 -3.701,1.072 -2.783,0 -4.975,-1.916 -4.975,-5.461 0,-3.756 1.66,-6.057 4.325,-6.057 0.332,0 0.662,0.024 1.021,0.096"
       style="fill:#231f20;fill-opacity:1;fill-rule:nonzero;stroke:none"
       transform="matrix(1.3333333,0,0,-1.3333333,0,1128.1084)"
       clip-path="url(#clipPath6)" />
    <path
       id="path7"
       d="m 308.8301,404.8292 c 3.586,2.465 6.717,6.271 6.721,14.332 v 48.361 h 3.578 v -48.361 c 0,-8.955 -4.479,-12.537 -10.299,-14.332"
       style="fill:#b01028;fill-opacity:1;fill-rule:nonzero;stroke:none"
       transform="matrix(1.3333333,0,0,-1.3333333,0,1128.1084)"
       clip-path="url(#clipPath8)" />
    <path
       id="path9"
       d="m 311.7441,404.8292 c 3.358,1.566 9.178,4.48 9.178,14.332 v 48.361 h 3.586 v -48.361 c 0,-12.092 -9.406,-13.881 -12.764,-14.332"
       style="fill:#b01028;fill-opacity:1;fill-rule:nonzero;stroke:none"
       transform="matrix(1.3333333,0,0,-1.3333333,0,1128.1084)"
       clip-path="url(#clipPath10)" />
    <path
       id="path11"
       d="m 306.5898,404.8292 c 2.674,2.691 3.584,8.061 3.584,15.227 v 47.466 h 3.584 v -48.361 c 0,-8.039 -2.685,-12.092 -7.168,-14.332"
       style="fill:#b01028;fill-opacity:1;fill-rule:nonzero;stroke:none"
       transform="matrix(1.3333333,0,0,-1.3333333,0,1128.1084)"
       clip-path="url(#clipPath12)" />
    <path
       id="path13"
       d="m 289.1289,483.6447 c 3.583,-2.464 6.719,-6.272 6.719,-14.33 v -55.527 h 3.586 v 55.527 c 0,8.957 -4.478,12.538 -10.305,14.33"
       style="fill:#231f20;fill-opacity:1;fill-rule:nonzero;stroke:none"
       transform="matrix(1.3333333,0,0,-1.3333333,0,1128.1084)"
       clip-path="url(#clipPath14)" />
    <path
       id="path15"
       d="m 292.042,483.6447 c 3.362,-1.567 9.179,-4.479 9.179,-14.33 v -55.527 h 3.58 v 55.527 c 0,12.09 -9.397,13.883 -12.759,14.33"
       style="fill:#231f20;fill-opacity:1;fill-rule:nonzero;stroke:none"
       transform="matrix(1.3333333,0,0,-1.3333333,0,1128.1084)"
       clip-path="url(#clipPath16)" />
    <path
       id="path17"
       d="m 286.8867,483.6447 c 2.678,-2.687 3.584,-8.061 3.584,-15.225 v -54.632 h 3.588 v 55.527 c 0,8.036 -2.69,12.09 -7.172,14.33"
       style="fill:#231f20;fill-opacity:1;fill-rule:nonzero;stroke:none"
       transform="matrix(1.3333333,0,0,-1.3333333,0,1128.1084)"
       clip-path="url(#clipPath18)" />
    <path
       id="path19"
       d="m 286.4414,404.8292 c -3.578,2.465 -6.715,6.271 -6.715,14.332 v 48.361 h -3.58 v -48.361 c 0,-8.955 4.479,-12.537 10.295,-14.332"
       style="fill:#006b3b;fill-opacity:1;fill-rule:nonzero;stroke:none"
       transform="matrix(1.3333333,0,0,-1.3333333,0,1128.1084)"
       clip-path="url(#clipPath20)" />
    <path
       id="path21"
       d="m 283.5273,404.8292 c -3.355,1.566 -9.174,4.48 -9.174,14.332 v 48.361 h -3.585 v -48.361 c 0,-12.092 9.404,-13.881 12.759,-14.332"
       style="fill:#006b3b;fill-opacity:1;fill-rule:nonzero;stroke:none"
       transform="matrix(1.3333333,0,0,-1.3333333,0,1128.1084)"
       clip-path="url(#clipPath22)" />
    <path
       id="path23"
       d="m 288.6777,404.8292 c -2.67,2.691 -3.578,8.061 -3.578,15.227 v 47.466 h -3.582 v -48.361 c 0,-8.039 2.687,-12.092 7.16,-14.332"
       style="fill:#006b3b;fill-opacity:1;fill-rule:nonzero;stroke:none"
       transform="matrix(1.3333333,0,0,-1.3333333,0,1128.1084)"
       clip-path="url(#clipPath24)" />
    <path
       id="path25"
       d="m 250.9233,365.007 c -0.032,0.16 -0.065,0.325 -0.1,0.496 -0.035,0.171 -0.067,0.331 -0.096,0.481 -0.03,0.149 -0.053,0.274 -0.072,0.376 -0.019,0.1 -0.031,0.162 -0.036,0.183 -0.037,-0.182 -0.08,-0.402 -0.128,-0.664 -0.047,-0.261 -0.107,-0.552 -0.175,-0.872 l -0.297,-1.392 h 1.2 z m 0.712,-3.344 -0.232,1.088 h -1.568 l -0.232,-1.088 h -1.184 l 1.504,5.6 h 1.393 l 1.503,-5.6 z"
       style="fill:#231f20;fill-opacity:1;fill-rule:nonzero;stroke:none"
       transform="matrix(1.3333333,0,0,-1.3333333,0,1128.1084)"
       clip-path="url(#clipPath26)" />
    <path
       id="path27"
       d="m 257.2202,361.8712 c -0.107,-0.032 -0.232,-0.064 -0.376,-0.096 -0.145,-0.032 -0.299,-0.063 -0.465,-0.092 -0.165,-0.029 -0.336,-0.053 -0.512,-0.072 -0.175,-0.018 -0.346,-0.028 -0.511,-0.028 -0.256,0 -0.512,0.028 -0.769,0.084 -0.256,0.056 -0.485,0.18 -0.687,0.372 -0.203,0.192 -0.368,0.474 -0.493,0.844 -0.125,0.371 -0.187,0.871 -0.187,1.5 0,0.416 0.034,0.779 0.104,1.088 0.069,0.309 0.164,0.573 0.284,0.792 0.12,0.218 0.259,0.399 0.42,0.54 0.16,0.141 0.331,0.252 0.511,0.332 0.182,0.08 0.368,0.134 0.561,0.164 0.191,0.029 0.381,0.044 0.567,0.044 0.305,0 0.568,-0.032 0.788,-0.096 0.222,-0.064 0.397,-0.128 0.525,-0.192 v -0.896 c -0.07,0.022 -0.156,0.049 -0.256,0.084 -0.102,0.034 -0.211,0.065 -0.328,0.092 -0.117,0.026 -0.239,0.051 -0.364,0.072 -0.125,0.022 -0.248,0.032 -0.365,0.032 -0.143,0 -0.293,-0.024 -0.447,-0.072 -0.155,-0.048 -0.298,-0.144 -0.429,-0.288 -0.131,-0.144 -0.238,-0.346 -0.323,-0.604 -0.086,-0.258 -0.129,-0.596 -0.129,-1.012 0,-0.443 0.034,-0.795 0.101,-1.056 0.066,-0.262 0.149,-0.462 0.248,-0.6 0.098,-0.139 0.206,-0.228 0.324,-0.268 0.117,-0.04 0.227,-0.06 0.327,-0.06 0.06,0 0.124,0.002 0.196,0.008 0.073,0.005 0.145,0.012 0.216,0.02 0.073,0.008 0.139,0.016 0.2,0.024 0.062,0.008 0.111,0.017 0.149,0.028 v 1.688 h -0.761 l -0.079,0.856 h 1.96 z"
       style="fill:#231f20;fill-opacity:1;fill-rule:nonzero;stroke:none"
       transform="matrix(1.3333333,0,0,-1.3333333,0,1128.1084)"
       clip-path="url(#clipPath28)" />
    <path
       id="path29"
       d="m 261.1802,361.6632 v 2.576 h -1.601 v -2.576 h -1.12 v 5.6 h 1.12 v -2.16 h 1.601 v 2.16 h 1.12 v -5.6 z"
       style="fill:#231f20;fill-opacity:1;fill-rule:nonzero;stroke:none"
       transform="matrix(1.3333333,0,0,-1.3333333,0,1128.1084)"
       clip-path="url(#clipPath30)" />
    <path
       id="path31"
       d="m 269.5874,363.3907 c 0,-0.287 -0.032,-0.544 -0.096,-0.768 -0.064,-0.223 -0.168,-0.413 -0.312,-0.568 -0.144,-0.154 -0.332,-0.271 -0.564,-0.351 -0.232,-0.081 -0.516,-0.121 -0.852,-0.121 -0.352,0 -0.646,0.039 -0.88,0.117 -0.234,0.077 -0.421,0.191 -0.56,0.343 -0.138,0.153 -0.237,0.342 -0.296,0.569 -0.059,0.226 -0.088,0.486 -0.088,0.779 v 3.872 h 1.12 v -3.84 c 0,-0.346 0.052,-0.591 0.156,-0.731 0.104,-0.142 0.287,-0.212 0.548,-0.212 0.24,0 0.417,0.068 0.532,0.208 0.114,0.139 0.172,0.384 0.172,0.735 v 3.84 h 1.12 z"
       style="fill:#231f20;fill-opacity:1;fill-rule:nonzero;stroke:none"
       transform="matrix(1.3333333,0,0,-1.3333333,0,1128.1084)"
       clip-path="url(#clipPath32)" />
    <path
       id="path33"
       d="m 273.5708,361.6632 -1.128,2.048 c -0.123,0.229 -0.229,0.446 -0.32,0.652 -0.09,0.205 -0.165,0.369 -0.224,0.492 0.016,-0.138 0.041,-0.338 0.076,-0.6 0.034,-0.261 0.052,-0.568 0.052,-0.92 v -1.672 h -1.12 v 4.48 h 1.152 l 1.04,-1.848 c 0.15,-0.261 0.266,-0.49 0.348,-0.688 0.083,-0.197 0.159,-0.376 0.228,-0.536 -0.016,0.154 -0.042,0.369 -0.076,0.644 -0.035,0.274 -0.051,0.566 -0.051,0.876 v 1.552 h 1.12 v -4.48 z"
       style="fill:#231f20;fill-opacity:1;fill-rule:nonzero;stroke:none"
       transform="matrix(1.3333333,0,0,-1.3333333,0,1128.1084)"
       clip-path="url(#clipPath34)" />
    <path
       id="path35"
       d="m 276.107,361.664 h 1.137 v 4.48 h -1.137 z"
       style="fill:#231f20;fill-opacity:1;fill-rule:nonzero;stroke:none"
       transform="matrix(1.3333333,0,0,-1.3333333,0,1128.1084)"
       clip-path="url(#clipPath36)" />
    <path
       id="path37"
       d="m 280.731,361.6632 h -1.536 l -1.352,4.48 h 1.241 l 0.624,-2.656 c 0.032,-0.134 0.06,-0.269 0.087,-0.408 0.027,-0.139 0.052,-0.268 0.077,-0.388 0.023,-0.12 0.044,-0.224 0.059,-0.312 0.016,-0.088 0.027,-0.143 0.032,-0.164 0,0.016 0.008,0.066 0.024,0.152 0.016,0.085 0.036,0.188 0.06,0.308 0.024,0.12 0.051,0.251 0.08,0.392 0.03,0.141 0.06,0.282 0.092,0.42 l 0.624,2.656 h 1.241 z"
       style="fill:#231f20;fill-opacity:1;fill-rule:nonzero;stroke:none"
       transform="matrix(1.3333333,0,0,-1.3333333,0,1128.1084)"
       clip-path="url(#clipPath38)" />
    <path
       id="path39"
       d="m 285.7231,365.2472 h -1.96 v -0.864 h 1.68 v -0.823 h -1.68 v -1.001 h 2 v -0.896 h -3.12 v 4.48 h 3.16 z"
       style="fill:#231f20;fill-opacity:1;fill-rule:nonzero;stroke:none"
       transform="matrix(1.3333333,0,0,-1.3333333,0,1128.1084)"
       clip-path="url(#clipPath40)" />
    <path
       id="path41"
       d="m 289.2437,364.7667 c 0,0.203 -0.077,0.342 -0.232,0.416 -0.155,0.075 -0.411,0.112 -0.768,0.112 h -0.36 v -1.191 c 0.224,0 0.422,0.008 0.591,0.023 0.171,0.017 0.314,0.048 0.429,0.096 0.114,0.049 0.199,0.115 0.256,0.2 0.056,0.086 0.084,0.2 0.084,0.344 m -0.072,-3.104 -0.272,0.953 c -0.038,0.128 -0.071,0.233 -0.1,0.315 -0.03,0.083 -0.059,0.152 -0.088,0.208 -0.03,0.057 -0.06,0.104 -0.092,0.141 -0.032,0.037 -0.064,0.077 -0.096,0.12 l -0.64,-0.04 v -1.697 h -1.12 v 4.481 h 1.536 c 0.298,0 0.575,-0.017 0.828,-0.049 0.253,-0.031 0.471,-0.096 0.656,-0.191 0.184,-0.097 0.326,-0.232 0.428,-0.405 0.101,-0.172 0.152,-0.398 0.152,-0.675 0,-0.203 -0.021,-0.372 -0.064,-0.508 -0.043,-0.137 -0.104,-0.25 -0.184,-0.341 -0.08,-0.09 -0.176,-0.163 -0.288,-0.22 -0.112,-0.055 -0.235,-0.105 -0.368,-0.147 0.202,-0.086 0.371,-0.305 0.504,-0.656 l 0.48,-1.289 z"
       style="fill:#231f20;fill-opacity:1;fill-rule:nonzero;stroke:none"
       transform="matrix(1.3333333,0,0,-1.3333333,0,1128.1084)"
       clip-path="url(#clipPath42)" />
    <path
       id="path43"
       d="m 294.1245,363.0236 c 0,-0.331 -0.058,-0.593 -0.173,-0.784 -0.114,-0.193 -0.261,-0.336 -0.439,-0.433 -0.179,-0.095 -0.376,-0.157 -0.592,-0.183 -0.217,-0.027 -0.423,-0.04 -0.62,-0.04 -0.197,0 -0.408,0.018 -0.632,0.055 -0.225,0.038 -0.456,0.094 -0.696,0.168 v 0.921 c 0.234,-0.075 0.467,-0.137 0.7,-0.184 0.231,-0.048 0.414,-0.073 0.548,-0.073 0.245,0 0.437,0.032 0.576,0.093 0.139,0.061 0.208,0.188 0.208,0.38 0,0.154 -0.054,0.267 -0.16,0.336 -0.108,0.069 -0.238,0.133 -0.393,0.191 l -0.407,0.16 c -0.128,0.048 -0.255,0.107 -0.381,0.176 -0.125,0.07 -0.235,0.153 -0.331,0.248 -0.097,0.097 -0.175,0.211 -0.236,0.345 -0.062,0.133 -0.092,0.293 -0.092,0.479 0,0.289 0.052,0.521 0.155,0.697 0.105,0.176 0.24,0.311 0.408,0.408 0.168,0.096 0.355,0.16 0.561,0.191 0.205,0.033 0.412,0.048 0.619,0.048 0.235,0 0.456,-0.019 0.664,-0.059 0.208,-0.04 0.393,-0.098 0.553,-0.172 v -0.872 c -0.203,0.074 -0.404,0.134 -0.605,0.179 -0.2,0.046 -0.377,0.069 -0.532,0.069 -0.239,0 -0.42,-0.03 -0.54,-0.088 -0.119,-0.059 -0.18,-0.163 -0.18,-0.313 0,-0.143 0.056,-0.25 0.168,-0.319 0.113,-0.069 0.253,-0.137 0.424,-0.2 l 0.393,-0.153 c 0.128,-0.047 0.254,-0.105 0.38,-0.171 0.125,-0.067 0.236,-0.149 0.332,-0.245 0.095,-0.095 0.173,-0.212 0.231,-0.351 0.059,-0.139 0.089,-0.307 0.089,-0.504"
       style="fill:#231f20;fill-opacity:1;fill-rule:nonzero;stroke:none"
       transform="matrix(1.3333333,0,0,-1.3333333,0,1128.1084)"
       clip-path="url(#clipPath44)" />
    <path
       id="path45"
       d="m 295.204,361.664 h 1.137 v 4.48 h -1.137 z"
       style="fill:#231f20;fill-opacity:1;fill-rule:nonzero;stroke:none"
       transform="matrix(1.3333333,0,0,-1.3333333,0,1128.1084)"
       clip-path="url(#clipPath46)" />
    <path
       id="path47"
       d="m 300.8525,365.2228 h -1.232 v -3.56 h -1.12 v 3.56 h -1.36 v 0.921 h 3.84 z"
       style="fill:#231f20;fill-opacity:1;fill-rule:nonzero;stroke:none"
       transform="matrix(1.3333333,0,0,-1.3333333,0,1128.1084)"
       clip-path="url(#clipPath48)" />
    <path
       id="path49"
       d="m 303.7793,363.3673 v -1.704 h -1.119 v 1.704 l -1.561,2.776 h 1.273 l 0.847,-1.904 0.848,1.904 h 1.273 z"
       style="fill:#231f20;fill-opacity:1;fill-rule:nonzero;stroke:none"
       transform="matrix(1.3333333,0,0,-1.3333333,0,1128.1084)"
       clip-path="url(#clipPath50)" />
    <path
       id="path51"
       d="m 310.8594,363.9034 c 0,0.282 -0.021,0.522 -0.061,0.72 -0.04,0.197 -0.096,0.356 -0.171,0.475 -0.075,0.12 -0.167,0.207 -0.276,0.261 -0.109,0.053 -0.233,0.08 -0.372,0.08 -0.139,0 -0.263,-0.027 -0.372,-0.08 -0.109,-0.054 -0.202,-0.142 -0.276,-0.265 -0.075,-0.122 -0.132,-0.281 -0.172,-0.475 -0.04,-0.195 -0.061,-0.434 -0.061,-0.716 0,-0.539 0.076,-0.926 0.229,-1.16 0.152,-0.235 0.369,-0.353 0.652,-0.353 0.282,0 0.5,0.116 0.651,0.345 0.153,0.229 0.229,0.618 0.229,1.168 m 1.12,0 c 0,-0.502 -0.064,-0.904 -0.192,-1.208 -0.128,-0.305 -0.291,-0.539 -0.489,-0.704 -0.197,-0.165 -0.413,-0.275 -0.647,-0.328 -0.235,-0.054 -0.459,-0.08 -0.672,-0.08 -0.219,0 -0.445,0.026 -0.681,0.08 -0.234,0.053 -0.45,0.163 -0.647,0.328 -0.197,0.165 -0.359,0.399 -0.484,0.704 -0.125,0.304 -0.188,0.706 -0.188,1.208 0,0.501 0.064,0.903 0.192,1.208 0.127,0.304 0.289,0.538 0.484,0.704 0.194,0.165 0.409,0.275 0.643,0.328 0.236,0.053 0.462,0.079 0.681,0.079 0.213,0 0.437,-0.026 0.672,-0.079 0.234,-0.053 0.45,-0.163 0.647,-0.328 0.198,-0.166 0.361,-0.4 0.489,-0.704 0.128,-0.305 0.192,-0.707 0.192,-1.208"
       style="fill:#231f20;fill-opacity:1;fill-rule:nonzero;stroke:none"
       transform="matrix(1.3333333,0,0,-1.3333333,0,1128.1084)"
       clip-path="url(#clipPath52)" />
    <path
       id="path53"
       d="m 316.0752,365.2228 h -1.896 v -0.92 h 1.679 v -0.823 h -1.679 v -1.817 h -1.121 v 4.481 h 3.121 z"
       style="fill:#231f20;fill-opacity:1;fill-rule:nonzero;stroke:none"
       transform="matrix(1.3333333,0,0,-1.3333333,0,1128.1084)"
       clip-path="url(#clipPath54)" />
    <path
       id="path55"
       d="m 321.9785,361.5831 -1.393,3.12 1.289,2.56 h 1.264 l -1.44,-2.512 1.52,-3.088 z m -2.601,5.68 h 1.12 v -5.6 h -1.12 z"
       style="fill:#231f20;fill-opacity:1;fill-rule:nonzero;stroke:none"
       transform="matrix(1.3333333,0,0,-1.3333333,0,1128.1084)"
       clip-path="url(#clipPath56)" />
    <path
       id="path57"
       d="m 326.458,364.7667 c 0,0.203 -0.077,0.342 -0.232,0.416 -0.155,0.075 -0.411,0.112 -0.768,0.112 h -0.36 v -1.191 c 0.224,0 0.422,0.008 0.591,0.023 0.171,0.017 0.314,0.048 0.429,0.096 0.114,0.049 0.199,0.115 0.256,0.2 0.056,0.086 0.084,0.2 0.084,0.344 m -0.072,-3.104 -0.272,0.953 c -0.038,0.128 -0.071,0.233 -0.1,0.315 -0.03,0.083 -0.059,0.152 -0.088,0.208 -0.03,0.057 -0.06,0.104 -0.092,0.141 -0.032,0.037 -0.064,0.077 -0.096,0.12 l -0.64,-0.04 v -1.697 h -1.12 v 4.481 h 1.536 c 0.298,0 0.575,-0.017 0.828,-0.049 0.253,-0.031 0.471,-0.096 0.656,-0.191 0.184,-0.097 0.326,-0.232 0.428,-0.405 0.101,-0.172 0.152,-0.398 0.152,-0.675 0,-0.203 -0.021,-0.372 -0.064,-0.508 -0.043,-0.137 -0.104,-0.25 -0.184,-0.341 -0.08,-0.09 -0.176,-0.163 -0.288,-0.22 -0.112,-0.055 -0.235,-0.105 -0.368,-0.147 0.202,-0.086 0.371,-0.305 0.504,-0.656 l 0.48,-1.289 z"
       style="fill:#231f20;fill-opacity:1;fill-rule:nonzero;stroke:none"
       transform="matrix(1.3333333,0,0,-1.3333333,0,1128.1084)"
       clip-path="url(#clipPath58)" />
    <path
       id="path59"
       d="m 330.5615,364.4474 c -0.091,0.319 -0.157,0.566 -0.2,0.74 -0.043,0.173 -0.077,0.308 -0.104,0.404 -0.032,-0.123 -0.076,-0.289 -0.132,-0.497 -0.056,-0.208 -0.114,-0.423 -0.172,-0.647 l -0.296,-1.072 h 1.2 z m 0.712,-2.784 -0.256,0.888 h -1.52 l -0.256,-0.888 h -1.184 l 1.48,4.48 h 1.44 l 1.48,-4.48 z"
       style="fill:#231f20;fill-opacity:1;fill-rule:nonzero;stroke:none"
       transform="matrix(1.3333333,0,0,-1.3333333,0,1128.1084)"
       clip-path="url(#clipPath60)" />
    <path
       id="path61"
       d="m 335.8574,361.5831 -1.393,2.44 1.265,2.121 h 1.288 l -1.425,-2.081 1.504,-2.4 z m -2.601,4.561 h 1.12 v -4.48 h -1.12 z"
       style="fill:#231f20;fill-opacity:1;fill-rule:nonzero;stroke:none"
       transform="matrix(1.3333333,0,0,-1.3333333,0,1128.1084)"
       clip-path="url(#clipPath62)" />
    <path
       id="path63"
       d="m 340.2578,363.9034 c 0,0.282 -0.021,0.522 -0.061,0.72 -0.04,0.197 -0.096,0.356 -0.171,0.475 -0.075,0.12 -0.167,0.207 -0.276,0.261 -0.109,0.053 -0.233,0.08 -0.372,0.08 -0.139,0 -0.263,-0.027 -0.372,-0.08 -0.109,-0.054 -0.202,-0.142 -0.276,-0.265 -0.075,-0.122 -0.132,-0.281 -0.172,-0.475 -0.04,-0.195 -0.061,-0.434 -0.061,-0.716 0,-0.539 0.076,-0.926 0.229,-1.16 0.152,-0.235 0.369,-0.353 0.652,-0.353 0.282,0 0.5,0.116 0.651,0.345 0.153,0.229 0.229,0.618 0.229,1.168 m 1.12,0 c 0,-0.502 -0.064,-0.904 -0.192,-1.208 -0.128,-0.305 -0.291,-0.539 -0.489,-0.704 -0.197,-0.165 -0.413,-0.275 -0.647,-0.328 -0.235,-0.054 -0.459,-0.08 -0.672,-0.08 -0.219,0 -0.445,0.026 -0.681,0.08 -0.234,0.053 -0.45,0.163 -0.647,0.328 -0.197,0.165 -0.359,0.399 -0.484,0.704 -0.125,0.304 -0.188,0.706 -0.188,1.208 0,0.501 0.064,0.903 0.192,1.208 0.127,0.304 0.289,0.538 0.484,0.704 0.194,0.165 0.409,0.275 0.643,0.328 0.236,0.053 0.462,0.079 0.681,0.079 0.213,0 0.437,-0.026 0.672,-0.079 0.234,-0.053 0.45,-0.163 0.647,-0.328 0.198,-0.166 0.361,-0.4 0.489,-0.704 0.128,-0.305 0.192,-0.707 0.192,-1.208"
       style="fill:#231f20;fill-opacity:1;fill-rule:nonzero;stroke:none"
       transform="matrix(1.3333333,0,0,-1.3333333,0,1128.1084)"
       clip-path="url(#clipPath64)" />
    <path
       id="path65"
       d="m 347.3691,361.6632 h -1.52 l -0.44,2.16 c -0.026,0.133 -0.059,0.297 -0.096,0.492 -0.038,0.195 -0.075,0.387 -0.112,0.576 -0.037,0.189 -0.069,0.357 -0.096,0.504 -0.027,0.147 -0.043,0.236 -0.048,0.268 -0.005,-0.032 -0.021,-0.12 -0.048,-0.264 -0.027,-0.144 -0.057,-0.311 -0.092,-0.5 -0.034,-0.189 -0.07,-0.382 -0.108,-0.58 -0.038,-0.197 -0.069,-0.363 -0.096,-0.496 l -0.448,-2.16 h -1.52 l -0.928,4.48 h 1.264 l 0.256,-2.24 c 0.016,-0.171 0.033,-0.35 0.053,-0.54 0.018,-0.189 0.035,-0.367 0.051,-0.532 0.016,-0.165 0.03,-0.307 0.04,-0.424 0.011,-0.086 0.019,-0.144 0.024,-0.176 l 0.024,0.168 c 0.022,0.112 0.045,0.249 0.072,0.412 0.027,0.163 0.059,0.341 0.096,0.536 0.037,0.195 0.074,0.38 0.112,0.556 l 0.464,2.24 h 1.568 l 0.48,-2.24 c 0.032,-0.149 0.066,-0.317 0.1,-0.504 0.035,-0.187 0.067,-0.364 0.096,-0.532 0.03,-0.168 0.053,-0.313 0.072,-0.436 0.018,-0.122 0.031,-0.198 0.036,-0.224 0.026,0.251 0.055,0.52 0.084,0.808 0.029,0.288 0.06,0.584 0.092,0.888 l 0.232,2.24 h 1.264 z"
       style="fill:#231f20;fill-opacity:1;fill-rule:nonzero;stroke:none"
       transform="matrix(1.3333333,0,0,-1.3333333,0,1128.1084)"
       clip-path="url(#clipPath66)" />
  </g>
</svg>
