<?xml version="1.0" encoding="UTF-8" standalone="no"?>
<!-- Created with Inkscape (http://www.inkscape.org/) -->

<svg
   version="1.1"
   id="svg1"
   width="1122.52"
   height="793.70135"
   viewBox="0 0 1122.52 793.70135"
   sodipodi:docname="agh_idub_en_cmyk.pdf"
   inkscape:export-filename="agh_idub_en_cmyk.svg"
   inkscape:export-xdpi="96"
   inkscape:export-ydpi="96"
   xmlns:inkscape="http://www.inkscape.org/namespaces/inkscape"
   xmlns:sodipodi="http://sodipodi.sourceforge.net/DTD/sodipodi-0.dtd"
   xmlns="http://www.w3.org/2000/svg"
   xmlns:svg="http://www.w3.org/2000/svg">
  <defs
     id="defs1">
    <clipPath
       clipPathUnits="userSpaceOnUse"
       id="clipPath2">
      <path
         d="M 0,0 H 841.89 V 595.276 H 0 Z"
         transform="translate(-145.1323,-115.8029)"
         id="path2" />
    </clipPath>
    <clipPath
       clipPathUnits="userSpaceOnUse"
       id="clipPath4">
      <path
         d="M 0,0 H 841.89 V 595.276 H 0 Z"
         transform="translate(-226.05031,-99.341)"
         id="path4" />
    </clipPath>
    <clipPath
       clipPathUnits="userSpaceOnUse"
       id="clipPath6">
      <path
         d="M 0,0 H 841.89 V 595.276 H 0 Z"
         transform="translate(-287.46531,-145.08031)"
         id="path6" />
    </clipPath>
    <clipPath
       clipPathUnits="userSpaceOnUse"
       id="clipPath8">
      <path
         d="M 0,0 H 841.89 V 595.276 H 0 Z"
         transform="translate(-262.4146,-195.0061)"
         id="path8" />
    </clipPath>
    <clipPath
       clipPathUnits="userSpaceOnUse"
       id="clipPath10">
      <path
         d="M 0,0 H 841.89 V 595.276 H 0 Z"
         transform="translate(-273.75151,-195.0061)"
         id="path10" />
    </clipPath>
    <clipPath
       clipPathUnits="userSpaceOnUse"
       id="clipPath12">
      <path
         d="M 0,0 H 841.89 V 595.276 H 0 Z"
         transform="translate(-253.7017,-195.0061)"
         id="path12" />
    </clipPath>
    <clipPath
       clipPathUnits="userSpaceOnUse"
       id="clipPath14">
      <path
         d="M 0,0 H 841.89 V 595.276 H 0 Z"
         transform="translate(-185.7427,-501.71211)"
         id="path14" />
    </clipPath>
    <clipPath
       clipPathUnits="userSpaceOnUse"
       id="clipPath16">
      <path
         d="M 0,0 H 841.89 V 595.276 H 0 Z"
         transform="translate(-197.0781,-501.71211)"
         id="path16" />
    </clipPath>
    <clipPath
       clipPathUnits="userSpaceOnUse"
       id="clipPath18">
      <path
         d="M 0,0 H 841.89 V 595.276 H 0 Z"
         transform="translate(-177.0298,-501.71211)"
         id="path18" />
    </clipPath>
    <clipPath
       clipPathUnits="userSpaceOnUse"
       id="clipPath20">
      <path
         d="M 0,0 H 841.89 V 595.276 H 0 Z"
         transform="translate(-175.2886,-195.0061)"
         id="path20" />
    </clipPath>
    <clipPath
       clipPathUnits="userSpaceOnUse"
       id="clipPath22">
      <path
         d="M 0,0 H 841.89 V 595.276 H 0 Z"
         transform="translate(-163.9531,-195.0061)"
         id="path22" />
    </clipPath>
    <clipPath
       clipPathUnits="userSpaceOnUse"
       id="clipPath24">
      <path
         d="M 0,0 H 841.89 V 595.276 H 0 Z"
         transform="translate(-184.0015,-195.0061)"
         id="path24" />
    </clipPath>
    <clipPath
       clipPathUnits="userSpaceOnUse"
       id="clipPath26">
      <path
         d="M 0,0 H 841.89 V 595.276 H 0 Z"
         transform="translate(-400.48781,-502.54371)"
         id="path26" />
    </clipPath>
    <clipPath
       clipPathUnits="userSpaceOnUse"
       id="clipPath28">
      <path
         d="M 476.744,43 H 764.39 V 500.544 H 476.744 Z"
         transform="translate(-738.01952,-309.36231)"
         id="path28" />
    </clipPath>
    <clipPath
       clipPathUnits="userSpaceOnUse"
       id="clipPath32">
      <path
         d="M 476.744,43 H 764.39 V 500.544 H 476.744 Z"
         transform="translate(-526.80502,-94.1759)"
         id="path32" />
    </clipPath>
    <clipPath
       clipPathUnits="userSpaceOnUse"
       id="clipPath34">
      <path
         d="M 476.744,43 H 764.39 V 500.544 H 476.744 Z"
         transform="translate(-501.75082,-174.8201)"
         id="path34" />
    </clipPath>
    <clipPath
       clipPathUnits="userSpaceOnUse"
       id="clipPath36">
      <path
         d="M 476.744,43 H 764.39 V 500.544 H 476.744 Z"
         transform="translate(-541.84211,-224.96981)"
         id="path36" />
    </clipPath>
  </defs>
  <sodipodi:namedview
     id="namedview1"
     pagecolor="#ffffff"
     bordercolor="#000000"
     borderopacity="0.25"
     inkscape:showpageshadow="2"
     inkscape:pageopacity="0.0"
     inkscape:pagecheckerboard="0"
     inkscape:deskcolor="#d1d1d1">
    <inkscape:page
       x="0"
       y="0"
       inkscape:label="1"
       id="page1"
       width="1122.52"
       height="793.70135"
       margin="0"
       bleed="0" />
  </sodipodi:namedview>
  <g
     id="layer-MC0"
     inkscape:groupmode="layer"
     inkscape:label="Warstwa 1">
    <path
       id="path1"
       d="m 0,0 h -14.309 l 7.056,21.403 z m 8.591,-25.35 h 17.84 c 0,0 -19.742,55.512 -19.749,55.526 -2.217,6.244 -6.998,7.206 -8.532,7.206 h -17.239 c 2.645,-2.16 3.56,-3.572 3.56,-5.738 0,-1.317 -0.293,-2.325 -1.731,-6.581 l -17.068,-50.417 h 11.656 l 5.158,15.64 H 3.293 Z"
       style="fill:#231f20;fill-opacity:1;fill-rule:nonzero;stroke:none"
       transform="matrix(1.3333333,0,0,-1.3333333,193.50973,639.29747)"
       clip-path="url(#clipPath2)" />
    <path
       id="path3"
       d="m 0,0 v 20.011 c 0,3.828 -0.813,5.787 -3.53,8.21 L 9.353,28.217 c 3.979,0 7.393,-3.226 7.393,-7.298 V -7.479 c -6.294,-1.85 -12.677,-2.867 -18.503,-2.867 -22.303,0 -36.437,13.006 -36.437,32.249 0,18.786 14.164,33.425 36.743,33.425 5.138,0 10.017,-0.899 14.441,-2.502 V 40.271 c -3.964,2.614 -8.98,4.177 -14.441,4.177 -10.825,0 -19.351,-7.462 -19.351,-21.248 0,-14.619 6.459,-23.572 16.823,-23.572 1.298,0 2.59,0.092 3.979,0.372"
       style="fill:#231f20;fill-opacity:1;fill-rule:nonzero;stroke:none"
       transform="matrix(1.3333333,0,0,-1.3333333,301.4004,661.24667)"
       clip-path="url(#clipPath4)" />
    <path
       id="path5"
       d="m 0,0 c 0,4.477 -3.532,8.104 -7.887,8.104 h -12.486 c 2.719,-2.419 3.532,-4.381 3.532,-8.207 V -54.631 H 0 v 26.377 H 19.155 V -54.631 H 35.949 V 7.92 H 19.155 v -25.534 l -19.155,0 z"
       style="fill:#231f20;fill-opacity:1;fill-rule:nonzero;stroke:none"
       transform="matrix(1.3333333,0,0,-1.3333333,383.28707,600.26093)"
       clip-path="url(#clipPath6)" />
    <path
       id="path7"
       d="M 0,0 C 13.944,9.586 26.14,24.398 26.144,55.767 V 243.97 H 40.081 V 55.767 C 40.081,20.913 22.658,6.973 0,0"
       style="fill:#b01028;fill-opacity:1;fill-rule:nonzero;stroke:none"
       transform="matrix(1.3333333,0,0,-1.3333333,349.88613,533.6932)"
       clip-path="url(#clipPath8)" />
    <path
       id="path9"
       d="M 0,0 C 13.072,6.1 35.723,17.427 35.723,55.767 V 243.97 h 13.94 V 55.767 C 49.663,8.714 13.072,1.745 0,0"
       style="fill:#b01028;fill-opacity:1;fill-rule:nonzero;stroke:none"
       transform="matrix(1.3333333,0,0,-1.3333333,365.002,533.6932)"
       clip-path="url(#clipPath10)" />
    <path
       id="path11"
       d="M 0,0 C 10.405,10.462 13.94,31.367 13.94,59.252 V 243.97 H 27.884 V 55.767 C 27.884,24.491 17.43,8.714 0,0"
       style="fill:#b01028;fill-opacity:1;fill-rule:nonzero;stroke:none"
       transform="matrix(1.3333333,0,0,-1.3333333,338.26893,533.6932)"
       clip-path="url(#clipPath12)" />
    <path
       id="path13"
       d="M 0,0 C 13.943,-9.584 26.139,-24.398 26.14,-55.764 V -271.85 H 40.081 V -55.764 C 40.081,-20.913 22.654,-6.97 0,0"
       style="fill:#231f20;fill-opacity:1;fill-rule:nonzero;stroke:none"
       transform="matrix(1.3333333,0,0,-1.3333333,247.65693,124.75187)"
       clip-path="url(#clipPath14)" />
    <path
       id="path15"
       d="M 0,0 C 13.068,-6.1 35.724,-17.428 35.724,-55.764 V -271.85 H 49.661 V -55.764 C 49.661,-8.715 13.068,-1.743 0,0"
       style="fill:#231f20;fill-opacity:1;fill-rule:nonzero;stroke:none"
       transform="matrix(1.3333333,0,0,-1.3333333,262.7708,124.75187)"
       clip-path="url(#clipPath16)" />
    <path
       id="path17"
       d="m 0,0 c 10.402,-10.457 13.94,-31.369 13.94,-59.25 v -212.603 l 13.943,0.003 V -55.764 C 27.883,-24.491 17.426,-8.715 0,0"
       style="fill:#231f20;fill-opacity:1;fill-rule:nonzero;stroke:none"
       transform="matrix(1.3333333,0,0,-1.3333333,236.03973,124.75187)"
       clip-path="url(#clipPath18)" />
    <path
       id="path19"
       d="M 0,0 C -13.943,9.586 -26.137,24.398 -26.14,55.767 V 243.97 H -40.081 V 55.767 C -40.081,20.913 -22.656,6.973 0,0"
       style="fill:#006b3b;fill-opacity:1;fill-rule:nonzero;stroke:none"
       transform="matrix(1.3333333,0,0,-1.3333333,233.71813,533.6932)"
       clip-path="url(#clipPath20)" />
    <path
       id="path21"
       d="M 0,0 C -13.07,6.1 -35.724,17.427 -35.724,55.767 V 243.97 H -49.665 V 55.767 C -49.665,8.714 -13.07,1.745 0,0"
       style="fill:#006b3b;fill-opacity:1;fill-rule:nonzero;stroke:none"
       transform="matrix(1.3333333,0,0,-1.3333333,218.60413,533.6932)"
       clip-path="url(#clipPath22)" />
    <path
       id="path23"
       d="M 0,0 C -10.403,10.462 -13.942,31.367 -13.942,59.252 V 243.97 H -27.883 V 55.767 C -27.883,24.491 -17.427,8.714 0,0"
       style="fill:#006b3b;fill-opacity:1;fill-rule:nonzero;stroke:none"
       transform="matrix(1.3333333,0,0,-1.3333333,245.33533,533.6932)"
       clip-path="url(#clipPath24)" />
    <path
       id="path25"
       d="M 0,0 V -411.219"
       style="fill:#656263;fill-opacity:1;fill-rule:nonzero;stroke:#656263;stroke-width:1;stroke-linecap:butt;stroke-linejoin:miter;stroke-miterlimit:10;stroke-dasharray:none;stroke-opacity:1"
       transform="matrix(1.3333333,0,0,-1.3333333,533.98373,123.64307)"
       clip-path="url(#clipPath26)" />
    <path
       id="path27"
       d="m 0,0 -0.11,-0.014 c 0,-10.863 -8.807,-19.671 -19.67,-19.671 l 0.102,-0.109 h -46.253 -19.764 l -0.012,0.109 c -10.866,0 -19.673,8.808 -19.673,19.671 l -0.107,-0.101 v 112.182 h -0.002 v 13.185 32.971 c -0.004,18.202 -14.761,32.958 -32.966,32.958 h -32.963 -6.602 c -18.201,-0.002 -32.957,-14.76 -32.957,-32.963 v -5.914 -22.053 -11.597 c 0.004,-18.203 14.76,-32.959 32.965,-32.959 h 32.966 v 26.372 h -32.968 c -3.641,0 -6.589,2.951 -6.591,6.592 v 11.592 22.053 5.914 c 0,3.639 2.949,6.591 6.59,6.593 h 6.597 18.563 14.402 v -0.002 c 3.639,0 6.589,-2.95 6.592,-6.589 V 125.252 112.067 32.95 h 0.002 V -0.022 c 0.001,-25.484 20.663,-46.144 46.149,-46.144 h 59.338 6.599 c 25.485,0.003 46.145,20.665 46.145,46.152 v 59.336 6.601 C 26.368,91.406 5.707,112.067 -19.78,112.067 H -52.746 -92.303 V 85.695 h 72.509 l 0.014,-0.11 c 10.863,0 19.67,-8.807 19.67,-19.669 l 0.11,0.1 z"
       style="fill:#ed1c24;fill-opacity:1;fill-rule:nonzero;stroke:none"
       transform="matrix(1.3333333,0,0,-1.3333333,984.026,381.21827)"
       clip-path="url(#clipPath28)" />
    <path
       id="path29"
       d="M 0,0 H 19.135 V -26.372 Z"
       style="fill:#5f238c;fill-opacity:1;fill-rule:nonzero;stroke:none"
       transform="matrix(1.3333333,0,0,-1.3333333,765.1164,231.79573)" />
    <path
       id="path30"
       d="M 0,0 H -19.023 V 26.372 Z"
       style="fill:#5f238c;fill-opacity:1;fill-rule:nonzero;stroke:none"
       transform="matrix(1.3333333,0,0,-1.3333333,886.32133,266.95867)" />
    <path
       id="path31"
       d="m 0,0 h -7.257 v 7.834 h 6.74 V 9.85 h -6.74 v 6.999 H 0 v 2.015 H -9.33 V -2.016 H 0 Z m 9.389,8.553 4.693,10.311 H 12.038 L 8.15,10.282 4.205,18.864 H 1.987 L 6.709,8.957 1.642,-2.016 h 2.073 l 4.204,9.245 4.262,-9.245 h 2.275 z m 18.07,9.158 c -0.817,0.941 -2.174,1.411 -4.073,1.411 H 22.29 c -1.941,0 -3.326,-0.566 -4.162,-1.698 -0.835,-1.133 -1.252,-2.928 -1.252,-5.386 V 4.291 c 0,-2.245 0.298,-3.829 0.893,-4.752 0.787,-1.209 2.11,-1.814 3.973,-1.814 h 2.017 c 3.264,0 4.895,2.007 4.895,6.018 0,0.538 -0.01,0.952 -0.029,1.239 H 26.437 V 4.465 c 0,-1.92 -0.174,-3.168 -0.519,-3.746 -0.385,-0.651 -1.247,-0.978 -2.591,-0.978 h -1.125 c -1.382,0 -2.265,0.365 -2.648,1.097 -0.327,0.595 -0.49,1.979 -0.49,4.153 v 7.039 c 0,1.903 0.193,3.193 0.575,3.864 0.442,0.771 1.297,1.155 2.563,1.155 h 1.125 c 1.209,0 2.045,-0.355 2.504,-1.066 0.403,-0.652 0.606,-1.852 0.606,-3.599 v -0.261 h 2.217 c 0.02,0.232 0.028,0.558 0.028,0.98 0,2.131 -0.409,3.667 -1.223,4.608 M 41.382,0 h -7.256 v 7.834 h 6.739 V 9.85 h -6.739 v 6.999 h 7.256 v 2.015 h -9.33 v -20.88 h 9.33 z m 11.577,0 h -6.192 v 18.864 h -2.072 v -20.88 h 8.264 z m 10.712,0 h -6.192 v 18.864 h -2.071 v -20.88 h 8.263 z M 75.45,0 h -7.257 v 7.834 h 6.739 V 9.85 h -6.739 v 6.999 h 7.257 v 2.015 H 66.119 V -2.016 H 75.45 Z M 91.577,18.864 H 89.559 V 0.316 L 81.813,18.864 H 78.76 v -20.88 h 2.017 v 18.23 l 7.632,-18.23 h 3.168 z m 14.672,-1.153 c -0.817,0.941 -2.173,1.411 -4.075,1.411 h -1.093 c -1.939,0 -3.328,-0.566 -4.164,-1.698 -0.833,-1.133 -1.251,-2.928 -1.251,-5.386 V 4.291 c 0,-2.245 0.297,-3.829 0.892,-4.752 0.787,-1.209 2.113,-1.814 3.974,-1.814 h 2.016 c 3.265,0 4.896,2.007 4.896,6.018 0,0.538 -0.01,0.952 -0.029,1.239 h -2.188 V 4.465 c 0,-1.92 -0.173,-3.168 -0.52,-3.746 -0.382,-0.651 -1.247,-0.978 -2.591,-0.978 h -1.122 c -1.383,0 -2.266,0.365 -2.65,1.097 -0.327,0.595 -0.49,1.979 -0.49,4.153 v 7.039 c 0,1.903 0.192,3.193 0.577,3.864 0.441,0.771 1.295,1.155 2.563,1.155 h 1.122 c 1.209,0 2.045,-0.355 2.506,-1.066 0.404,-0.652 0.605,-1.852 0.605,-3.599 v -0.261 h 2.217 c 0.019,0.232 0.03,0.558 0.03,0.98 0,2.131 -0.408,3.667 -1.225,4.608 M 120.173,0 h -7.258 v 7.834 h 6.74 V 9.85 h -6.74 v 6.999 h 7.258 v 2.015 h -9.33 v -20.88 h 9.33 z m 13.476,18.864 h -2.074 V -2.014 h 2.074 z m 17.193,0 h -2.015 V 0.316 l -7.746,18.548 h -3.053 v -20.88 h 2.015 v 18.23 l 7.632,-18.23 h 3.167 z m 6.423,0 h -2.074 V -2.014 h 2.074 z m 13.851,-0.029 h -11.001 v -2.016 h 4.464 V -2.016 h 2.074 v 18.835 h 4.463 z m 4.896,0.029 h -2.074 V -2.014 h 2.074 z m 11.029,0 h -2.419 l -5.991,-20.88 h 2.075 l 1.295,4.494 h 7.257 l 1.181,-4.494 h 2.246 z m -4.492,-14.457 3.226,11.635 2.966,-11.635 z m 20.82,14.428 h -10.998 v -2.016 h 4.461 V -2.016 h 2.075 v 18.835 h 4.462 z m 4.897,0.029 h -2.074 V -2.014 h 2.074 z m 14.082,0 -4.723,-18.086 -4.319,18.086 h -2.217 l 5.268,-20.88 h 2.419 l 5.644,20.88 z M 236.487,0 h -7.257 v 7.834 h 6.739 V 9.85 h -6.739 v 6.999 h 7.257 v 2.015 h -9.331 v -20.88 h 9.331 z"
       style="fill:#706d6e;fill-opacity:1;fill-rule:nonzero;stroke:none"
       transform="matrix(1.3333333,0,0,-1.3333333,702.40667,668.13347)"
       clip-path="url(#clipPath32)" />
    <path
       id="path33"
       d="m 0,0 h -9.622 v -32.786 c 0,-1.149 -0.159,-1.941 -0.475,-2.377 -0.317,-0.435 -1.051,-0.653 -2.198,-0.653 -0.951,0 -1.603,0.158 -1.961,0.475 -0.474,0.357 -0.713,1.208 -0.713,2.555 V 0 h -10.038 v -29.164 c 0,-2.932 0.098,-5.088 0.298,-6.474 0.316,-2.019 0.949,-3.644 1.9,-4.869 1.03,-1.348 2.593,-2.239 4.694,-2.675 1.225,-0.276 3.086,-0.415 5.582,-0.415 2.453,0 4.315,0.139 5.583,0.415 2.099,0.436 3.642,1.309 4.633,2.615 0.99,1.307 1.643,2.929 1.961,4.871 0.238,1.425 0.356,3.6 0.356,6.532 z M 38.904,0 H 29.817 L 30.411,-34.035 22.63,0 H 8.493 v -43.061 h 9.088 l -0.654,34.982 7.901,-34.982 H 38.904 Z M 57.791,0 H 47.753 V -43.061 H 57.791 Z M 82.382,0 78.58,-37.716 74.896,0 H 64.561 l 6,-43.061 H 86.659 L 92.716,0 Z m 36.647,-35.341 h -9.741 v 10.691 h 8.375 v 7.425 h -8.375 v 9.505 h 8.908 V 0 H 99.248 v -43.061 h 19.781 z m 32.963,24.292 c 0,4.517 -1.17,7.546 -3.511,9.09 C 146.416,-0.653 142.487,0 136.693,0 h -10.477 v -43.061 h 10.06 v 14.79 h 1.667 c 1.468,0 2.49,-0.279 3.065,-0.831 0.577,-0.557 0.864,-1.587 0.864,-3.091 v -10.868 h 9.882 v 11.284 c 0,4.355 -2.242,6.851 -6.726,7.484 2.459,0.436 4.235,1.307 5.328,2.615 1.09,1.305 1.636,3.205 1.636,5.701 z m -10.751,-9.264 c -0.474,-0.396 -1.325,-0.594 -2.554,-0.594 h -2.435 v 13.304 h 2.435 c 1.229,0 2.08,-0.198 2.554,-0.593 0.476,-0.397 0.714,-1.228 0.714,-2.493 v -7.13 c 0,-1.267 -0.238,-2.099 -0.714,-2.494 m 43.004,-7.306 c 0,2.969 -0.505,5.158 -1.516,6.563 -1.009,1.407 -2.92,2.505 -5.731,3.297 -3.762,1.07 -5.721,1.642 -5.879,1.722 -1.309,0.633 -1.961,1.781 -1.961,3.446 V -9.8 c 0,1.148 0.197,1.931 0.595,2.346 0.393,0.416 1.108,0.623 2.137,0.623 1.188,0 1.939,-0.247 2.259,-0.743 0.316,-0.494 0.472,-1.374 0.472,-2.642 v -2.672 h 8.912 v 3.326 c 0,3.839 -0.617,6.375 -1.842,7.603 -1.663,1.661 -4.733,2.493 -9.207,2.493 h -2.968 c -3.802,0 -6.427,-0.789 -7.871,-2.371 -1.447,-1.58 -2.169,-4.251 -2.169,-8.006 v -3.973 c 0,-3.005 0.505,-5.217 1.514,-6.642 1.012,-1.422 2.941,-2.55 5.793,-3.378 1.384,-0.319 2.77,-0.655 4.158,-1.008 1.385,-0.358 2.344,-0.862 2.881,-1.512 0.532,-0.655 0.799,-1.752 0.799,-3.292 v -3.026 c 0,-1.264 -0.205,-2.114 -0.621,-2.548 -0.417,-0.436 -1.199,-0.652 -2.348,-0.652 -1.94,0 -2.91,1.028 -2.91,3.088 v 4.157 h -9.266 v -4.692 c 0,-3.897 0.792,-6.585 2.377,-8.062 1.583,-1.477 4.514,-2.214 8.79,-2.214 h 2.673 c 3.88,0 6.672,0.791 8.375,2.376 1.701,1.584 2.554,4.176 2.554,7.78 z M 202.36,0 h -10.038 v -43.061 h 10.038 z m 29.758,0 h -23.522 v -7.72 h 6.713 v -35.341 h 10.037 V -7.72 h 6.772 z M 252.905,0 249.043,-19.481 244.886,0 h -10.157 l 8.911,-29.102 v -13.959 h 10.036 v 13.959 L 262.41,0 Z"
       style="fill:#706d6e;fill-opacity:1;fill-rule:nonzero;stroke:none"
       transform="matrix(1.3333333,0,0,-1.3333333,669.00107,560.60787)"
       clip-path="url(#clipPath34)" />
    <path
       id="path35"
       d="m 0,0 c 0,4.513 -1.172,7.543 -3.513,9.088 -2.064,1.306 -5.991,1.961 -11.787,1.961 h -10.479 v -43.064 h 10.063 v 14.79 h 1.665 c 1.469,0 2.492,-0.278 3.068,-0.832 0.574,-0.555 0.862,-1.585 0.862,-3.089 v -10.869 h 9.883 v 11.285 c 0,4.356 -2.243,6.85 -6.728,7.484 2.461,0.435 4.238,1.308 5.329,2.612 C -0.545,-9.325 0,-7.426 0,-4.93 Z m -10.75,-9.267 c -0.477,-0.396 -1.328,-0.593 -2.554,-0.593 H -15.74 V 3.446 h 2.436 c 1.226,0 2.077,-0.2 2.554,-0.594 0.474,-0.396 0.712,-1.229 0.712,-2.497 v -7.127 c 0,-1.268 -0.238,-2.099 -0.712,-2.495 m 38.726,-15.025 h -9.741 v 10.689 h 8.375 v 7.426 h -8.375 v 9.502 h 8.909 v 7.724 H 8.196 v -43.064 h 19.78 z m 31.241,7.719 c 0,2.97 -0.505,5.157 -1.515,6.565 -1.009,1.404 -2.921,2.503 -5.732,3.296 -3.761,1.069 -5.722,1.642 -5.879,1.723 -1.308,0.632 -1.96,1.781 -1.96,3.445 v 2.791 c 0,1.147 0.197,1.931 0.594,2.347 0.394,0.415 1.107,0.623 2.138,0.623 1.188,0 1.939,-0.249 2.257,-0.743 0.317,-0.495 0.474,-1.377 0.474,-2.643 v -2.672 h 8.911 v 3.326 c 0,3.84 -0.616,6.374 -1.841,7.603 -1.664,1.662 -4.733,2.494 -9.207,2.494 h -2.97 c -3.802,0 -6.426,-0.79 -7.87,-2.373 C 35.171,7.627 34.449,4.96 34.449,1.204 v -3.972 c 0,-3.006 0.505,-5.219 1.514,-6.643 1.009,-1.423 2.941,-2.55 5.79,-3.379 1.386,-0.316 2.773,-0.653 4.16,-1.008 1.386,-0.357 2.345,-0.86 2.881,-1.514 0.533,-0.652 0.8,-1.748 0.8,-3.29 v -3.025 c 0,-1.264 -0.206,-2.114 -0.622,-2.55 -0.416,-0.434 -1.198,-0.651 -2.348,-0.651 -1.939,0 -2.909,1.028 -2.909,3.089 v 4.157 h -9.266 v -4.693 c 0,-3.897 0.792,-6.584 2.375,-8.061 1.585,-1.477 4.515,-2.213 8.791,-2.213 h 2.673 c 3.881,0 6.672,0.792 8.376,2.375 1.701,1.584 2.553,4.178 2.553,7.781 z m 27.679,-7.719 h -9.742 v 10.689 h 8.375 v 7.426 h -8.375 v 9.502 h 8.909 v 7.724 H 67.116 v -43.064 h 19.78 z m 27.379,35.341 H 98.239 l -6.415,-43.064 h 10.039 l 1.187,10.572 h 6.356 l 1.187,-10.572 h 10.275 z m -10.335,-25.305 2.377,20.314 2.196,-20.314 z M 153.061,0 c 0,4.513 -1.171,7.543 -3.512,9.088 -2.063,1.306 -5.993,1.961 -11.789,1.961 h -10.477 v -43.064 h 10.061 v 14.79 h 1.667 c 1.47,0 2.492,-0.278 3.067,-0.832 0.576,-0.555 0.863,-1.585 0.863,-3.089 v -10.869 h 9.883 v 11.285 c 0,4.356 -2.244,6.85 -6.728,7.484 2.462,0.435 4.237,1.308 5.329,2.612 1.091,1.309 1.636,3.208 1.636,5.704 z M 142.31,-9.267 c -0.474,-0.396 -1.326,-0.593 -2.553,-0.593 h -2.435 V 3.446 h 2.435 c 1.227,0 2.079,-0.2 2.553,-0.594 0.476,-0.396 0.713,-1.229 0.713,-2.497 v -7.127 c 0,-1.268 -0.237,-2.099 -0.713,-2.495 m 43.954,-6.652 h -9.146 v -5.88 c 0,-1.148 -0.16,-1.941 -0.476,-2.377 -0.317,-0.435 -0.99,-0.652 -2.021,-0.652 -1.069,0 -1.742,0.217 -2.018,0.651 -0.278,0.436 -0.416,1.226 -0.416,2.374 V 0.848 c 0,0.988 0.079,1.679 0.238,2.076 0.276,0.632 1.009,0.948 2.196,0.948 0.991,0 1.654,-0.207 1.991,-0.623 0.337,-0.414 0.506,-1.215 0.506,-2.401 V -3.48 h 9.146 v 2.964 c 0,4.704 -0.673,7.886 -2.019,9.547 -0.871,1.066 -2.08,1.779 -3.624,2.134 -1.267,0.276 -3.187,0.417 -5.761,0.417 -2.97,0 -5.129,-0.141 -6.475,-0.417 -1.821,-0.355 -3.227,-1.069 -4.217,-2.137 -0.99,-1.07 -1.644,-2.416 -1.96,-4.04 -0.238,-1.187 -0.355,-3.029 -0.355,-5.522 v -19.899 c 0,-2.493 0.117,-4.336 0.355,-5.523 0.316,-1.664 0.951,-3.01 1.901,-4.04 1.068,-1.147 2.534,-1.899 4.396,-2.258 1.189,-0.195 3.306,-0.295 6.355,-0.295 2.692,0 4.574,0.117 5.644,0.354 1.622,0.322 2.87,1.039 3.741,2.158 0.87,1.117 1.444,2.494 1.722,4.131 0.197,1.194 0.297,3.037 0.297,5.532 z M 219.05,11.049 H 209.014 V -5.524 h -5.229 v 16.573 h -10.037 v -43.064 h 10.037 v 18.769 h 5.229 v -18.769 h 10.036 z"
       style="fill:#706d6e;fill-opacity:1;fill-rule:nonzero;stroke:none"
       transform="matrix(1.3333333,0,0,-1.3333333,722.45613,493.7416)"
       clip-path="url(#clipPath36)" />
  </g>
</svg>
