<?xml version="1.0" encoding="UTF-8" standalone="no"?>
<!-- Created with Inkscape (http://www.inkscape.org/) -->

<svg
   version="1.1"
   id="svg1"
   width="332.08051"
   height="174.82613"
   viewBox="0 0 332.08051 174.82613"
   xmlns="http://www.w3.org/2000/svg"
   xmlns:svg="http://www.w3.org/2000/svg">
  <defs
     id="defs1">
    <clipPath
       clipPathUnits="userSpaceOnUse"
       id="clipPath3">
      <path
         d="M 0,180 H 306 V 0 H 0 Z"
         transform="translate(-54.427501,-40.419699)"
         id="path3" />
    </clipPath>
    <clipPath
       clipPathUnits="userSpaceOnUse"
       id="clipPath5">
      <path
         d="M 0,180 H 306 V 0 H 0 Z"
         transform="translate(-79.619799,-44.797201)"
         id="path5" />
    </clipPath>
    <clipPath
       clipPathUnits="userSpaceOnUse"
       id="clipPath7">
      <path
         d="M 0,180 H 306 V 0 H 0 Z"
         transform="translate(-105.35481,-28.310101)"
         id="path7" />
    </clipPath>
    <clipPath
       clipPathUnits="userSpaceOnUse"
       id="clipPath9">
      <path
         d="M 0,180 H 306 V 0 H 0 Z"
         transform="translate(-132.1542,-53.422501)"
         id="path9" />
    </clipPath>
    <clipPath
       clipPathUnits="userSpaceOnUse"
       id="clipPath11">
      <path
         d="M 0,180 H 306 V 0 H 0 Z"
         transform="translate(-170.2207,-48.790404)"
         id="path11" />
    </clipPath>
    <clipPath
       clipPathUnits="userSpaceOnUse"
       id="clipPath13">
      <path
         d="M 0,180 H 306 V 0 H 0 Z"
         transform="translate(-213.7213,-26.980403)"
         id="path13" />
    </clipPath>
    <clipPath
       clipPathUnits="userSpaceOnUse"
       id="clipPath15">
      <path
         d="M 0,180 H 306 V 0 H 0 Z"
         transform="translate(-246.8794,-40.419699)"
         id="path15" />
    </clipPath>
    <clipPath
       clipPathUnits="userSpaceOnUse"
       id="clipPath17">
      <path
         d="M 0,180 H 306 V 0 H 0 Z"
         transform="translate(-255.37291,-30.053401)"
         id="path17" />
    </clipPath>
    <clipPath
       clipPathUnits="userSpaceOnUse"
       id="clipPath19">
      <path
         d="M 0,180 H 306 V 0 H 0 Z"
         transform="translate(-165.9379,-26.980403)"
         id="path19" />
    </clipPath>
    <linearGradient
       x1="0"
       y1="0"
       x2="1"
       y2="0"
       gradientUnits="userSpaceOnUse"
       gradientTransform="matrix(32.723003,86.099052,86.099052,-32.723003,134.69611,66.072082)"
       spreadMethod="pad"
       id="linearGradient20">
      <stop
         style="stop-opacity:1;stop-color:#335eae"
         offset="0"
         id="stop19" />
      <stop
         style="stop-opacity:1;stop-color:#50ade5"
         offset="1"
         id="stop20" />
    </linearGradient>
    <clipPath
       clipPathUnits="userSpaceOnUse"
       id="clipPath22">
      <path
         d="M 0,180 H 306 V 0 H 0 Z"
         transform="translate(-179.7546,-94.750705)"
         id="path22" />
    </clipPath>
    <mask
       maskUnits="userSpaceOnUse"
       x="0"
       y="0"
       width="1"
       height="1"
       id="mask22">
      <path
         id="path24"
         d="M -32768,32767 H 32767 V -32768 H -32768 Z"
         style="fill:url(#linearGradient24);stroke:none" />
    </mask>
    <linearGradient
       x1="0"
       y1="0"
       x2="1"
       y2="0"
       gradientUnits="userSpaceOnUse"
       gradientTransform="matrix(48.175812,83.442955,83.442955,-48.175812,127.09241,67.616753)"
       spreadMethod="pad"
       id="linearGradient24">
      <stop
         style="stop-opacity:0;stop-color:#ffffff"
         offset="0"
         id="stop22" />
      <stop
         style="stop-opacity:0;stop-color:#ffffff"
         offset="0"
         id="stop23" />
      <stop
         style="stop-opacity:1;stop-color:#ffffff"
         offset="1"
         id="stop24" />
    </linearGradient>
    <linearGradient
       x1="0"
       y1="0"
       x2="1"
       y2="0"
       gradientUnits="userSpaceOnUse"
       gradientTransform="matrix(48.175812,83.442955,83.442955,-48.175812,127.09241,67.616753)"
       spreadMethod="pad"
       id="linearGradient27">
      <stop
         style="stop-opacity:1;stop-color:#ffffff"
         offset="0"
         id="stop25" />
      <stop
         style="stop-opacity:1;stop-color:#ffffff"
         offset="0"
         id="stop26" />
      <stop
         style="stop-opacity:1;stop-color:#ffffff"
         offset="1"
         id="stop27" />
    </linearGradient>
    <clipPath
       clipPathUnits="userSpaceOnUse"
       id="clipPath27">
      <path
         d="m 119.48,146.088 c -18.916,-15.598 -22.919,-44.725 -8.622,-64.91 1.896,-2.737 4.059,-5.28 6.464,-7.566 1.357,-1.709 3.741,-2.206 4.85,-0.049 0.34,0.753 0.754,1.463 1.222,2.134 -9.514,7.928 -15.583,19.859 -15.583,33.184 0,23.813 19.374,43.186 43.188,43.186 23.813,0 43.186,-19.373 43.186,-43.186 0,-12.996 -5.778,-24.661 -14.891,-32.585 1.052,-0.963 1.772,-2.065 2.246,-3.046 0.414,-0.856 1.539,-1.056 2.234,-0.406 0.937,0.876 2.037,1.915 2.456,2.36 3.911,4.144 13.588,16.172 13.499,33.669 -0.214,41.709 -48.712,63.76 -80.249,37.215"
         transform="matrix(1.3333333,0,0,-1.3333333,0,240)"
         id="path27" />
    </clipPath>
    <clipPath
       clipPathUnits="userSpaceOnUse"
       id="clipPath29">
      <path
         d="M 0,180 H 306 V 0 H 0 Z"
         transform="matrix(1.3333333,0,0,-1.3333333,0,240)"
         id="path29" />
    </clipPath>
  </defs>
  <g
     id="g1"
     transform="translate(-37.959334,-29.814671)">
    <g
       id="group-MC0">
      <path
         id="path2"
         d="m 0,0 c 0,6.797 -5.146,11.827 -11.98,11.827 -6.874,0 -12.019,-5.03 -12.019,-11.827 0,-6.796 5.145,-11.827 12.019,-11.827 C -5.146,-11.827 0,-6.796 0,0 m -25.958,0 c 0,7.795 5.952,13.631 13.978,13.631 7.987,0 13.977,-5.798 13.977,-13.631 0,-7.833 -5.99,-13.631 -13.977,-13.631 -8.026,0 -13.978,5.836 -13.978,13.631"
         style="fill:#5e666f;fill-opacity:1;fill-rule:nonzero;stroke:none"
         transform="matrix(1.3333333,0,0,-1.3333333,72.57,186.10707)"
         clip-path="url(#clipPath3)" />
      <path
         id="path4"
         d="m 0,0 c 0,4.646 -3.072,7.296 -8.832,7.296 h -7.243 c -0.241,0 -0.437,-0.196 -0.437,-0.437 v -13.68 c 0,-0.241 0.196,-0.437 0.437,-0.437 h 7.243 C -3.072,-7.258 0,-4.608 0,0 m 1.996,0 c 0,-5.644 -4.07,-9.024 -10.828,-9.024 h -7.243 c -0.241,0 -0.437,-0.195 -0.437,-0.436 v -7.92 c 0,-0.241 -0.195,-0.437 -0.436,-0.437 h -1.085 c -0.242,0 -0.437,0.196 -0.437,0.437 V 8.625 c 0,0.241 0.195,0.437 0.437,0.437 h 9.201 C -2.074,9.062 1.996,5.683 1.996,0"
         style="fill:#5e666f;fill-opacity:1;fill-rule:nonzero;stroke:none"
         transform="matrix(1.3333333,0,0,-1.3333333,106.15973,180.2704)"
         clip-path="url(#clipPath5)" />
      <path
         id="path6"
         d="M 0,0 V -0.893 C 0,-1.134 -0.195,-1.33 -0.437,-1.33 H -18.11 c -0.241,0 -0.436,0.196 -0.436,0.437 v 26.005 c 0,0.242 0.195,0.437 0.436,0.437 h 17.098 c 0.241,0 0.436,-0.195 0.436,-0.437 v -0.893 c 0,-0.241 -0.195,-0.436 -0.436,-0.436 h -15.14 c -0.241,0 -0.436,-0.196 -0.436,-0.437 v -9.725 c 0,-0.241 0.195,-0.436 0.436,-0.436 h 13.45 c 0.242,0 0.437,-0.196 0.437,-0.437 v -0.854 c 0,-0.241 -0.195,-0.437 -0.437,-0.437 h -13.45 c -0.241,0 -0.436,-0.195 -0.436,-0.436 V 0.873 c 0,-0.241 0.195,-0.436 0.436,-0.436 H -0.437 C -0.195,0.437 0,0.241 0,0"
         style="fill:#5e666f;fill-opacity:1;fill-rule:nonzero;stroke:none"
         transform="matrix(1.3333333,0,0,-1.3333333,140.47307,202.2532)"
         clip-path="url(#clipPath7)" />
      <path
         id="path8"
         d="m 0,0 v -26.006 c 0,-0.241 -0.195,-0.436 -0.437,-0.436 h -0.964 c -0.134,0 -0.26,0.061 -0.343,0.167 L -19.149,-4.09 c -0.256,0.326 -0.78,0.145 -0.78,-0.27 v -21.646 c 0,-0.241 -0.196,-0.436 -0.437,-0.436 h -1.085 c -0.241,0 -0.436,0.195 -0.436,0.436 V 0 c 0,0.241 0.195,0.437 0.436,0.437 h 1.002 c 0.134,0 0.261,-0.062 0.344,-0.168 l 17.366,-22.182 c 0.256,-0.327 0.78,-0.146 0.78,0.269 V 0 c 0,0.241 0.196,0.437 0.437,0.437 h 1.085 C -0.195,0.437 0,0.241 0,0"
         style="fill:#5e666f;fill-opacity:1;fill-rule:nonzero;stroke:none"
         transform="matrix(1.3333333,0,0,-1.3333333,176.2056,168.77)"
         clip-path="url(#clipPath9)" />
      <path
         id="path10"
         d="m 0,0 h -7.351 c -0.345,0 -0.625,0.28 -0.625,0.625 v 3.818 c 0,0.346 0.28,0.626 0.625,0.626 h 22.173 c 0.345,0 0.625,-0.28 0.625,-0.626 V 0.625 C 15.447,0.28 15.167,0 14.822,0 H 7.471 C 7.126,0 6.846,-0.28 6.846,-0.625 V -21.81 H 0.625 V -0.625 C 0.625,-0.28 0.345,0 0,0"
         style="fill:#2f6aba;fill-opacity:1;fill-rule:nonzero;stroke:none"
         transform="matrix(1.3333333,0,0,-1.3333333,226.96093,174.94613)"
         clip-path="url(#clipPath11)" />
      <path
         id="path12"
         d="M 0,0 -0.039,16.128 -7.949,2.841 h -2.803 l -7.871,12.941 V 0 h -5.837 v 26.253 c 0,0.346 0.28,0.626 0.625,0.626 h 4.167 c 0.22,0 0.423,-0.115 0.536,-0.303 l 9.878,-16.4 9.725,16.396 c 0.112,0.19 0.317,0.307 0.538,0.307 h 4.127 c 0.344,0 0.624,-0.279 0.625,-0.624 L 5.836,0 Z"
         style="fill:#2f6aba;fill-opacity:1;fill-rule:nonzero;stroke:none"
         transform="matrix(1.3333333,0,0,-1.3333333,284.96173,204.02613)"
         clip-path="url(#clipPath13)" />
      <path
         id="path14"
         d="m 0,0 c 0,5.107 -3.609,8.601 -8.409,8.601 -4.8,0 -8.41,-3.494 -8.41,-8.601 0,-5.107 3.61,-8.601 8.41,-8.601 C -3.609,-8.601 0,-5.107 0,0 m -23.116,0 c 0,7.987 6.22,13.901 14.707,13.901 8.447,0 14.706,-5.875 14.706,-13.901 0,-8.025 -6.259,-13.9 -14.706,-13.9 -8.487,0 -14.707,5.913 -14.707,13.9"
         style="fill:#2f6aba;fill-opacity:1;fill-rule:nonzero;stroke:none"
         transform="matrix(1.3333333,0,0,-1.3333333,329.17253,186.10707)"
         clip-path="url(#clipPath15)" />
      <path
         id="path16"
         d="m 0,0 1.642,3.642 c 0.141,0.313 0.529,0.437 0.817,0.25 2.243,-1.451 5.353,-2.434 8.332,-2.434 3.686,0 5.184,1.229 5.184,2.88 0,5.03 -15.628,1.574 -15.628,11.558 0,4.569 3.686,8.371 11.327,8.371 3.194,0 6.456,-0.721 8.912,-2.129 0.244,-0.14 0.341,-0.446 0.234,-0.707 l -1.496,-3.68 c -0.127,-0.314 -0.497,-0.44 -0.797,-0.283 -2.32,1.215 -4.688,1.807 -6.891,1.807 -3.686,0 -5.107,-1.382 -5.107,-3.072 0,-4.954 15.628,-1.536 15.628,-11.404 0,-4.493 -3.725,-8.333 -11.404,-8.333 -4.049,0 -8.131,1.143 -10.571,2.837 C -0.04,-0.543 -0.111,-0.247 0,0"
         style="fill:#2f6aba;fill-opacity:1;fill-rule:nonzero;stroke:none"
         transform="matrix(1.3333333,0,0,-1.3333333,340.4972,199.9288)"
         clip-path="url(#clipPath17)" />
      <path
         id="path18"
         d="m 0,0 -11.676,26.112 c -0.208,0.466 -0.672,0.767 -1.183,0.767 h -4.463 c -0.511,0 -0.975,-0.301 -1.183,-0.768 L -30.143,0 h 6.374 l 8.061,19.382 c 0.214,0.514 0.942,0.514 1.155,-0.001 l 4.102,-9.906 c -0.567,0.096 -1.155,0.15 -1.759,0.15 -2.576,0 -4.871,-0.921 -6.365,-2.36 -0.459,-0.441 0.017,-1.226 0.623,-1.032 0.92,0.293 1.915,0.452 2.953,0.452 0.983,0 1.925,-0.145 2.801,-0.41 2.305,-0.699 4.109,-2.506 5.031,-4.731 L -6.528,0 Z"
         style="fill:#2f6aba;fill-opacity:1;fill-rule:nonzero;stroke:none"
         transform="matrix(1.3333333,0,0,-1.3333333,221.25053,204.02613)"
         clip-path="url(#clipPath19)" />
      <path
         id="path20"
         d="M 119.48,146.088 C 100.564,130.49 96.561,101.363 110.858,81.178 v 0 c 1.896,-2.737 4.059,-5.28 6.463,-7.566 v 0 c 1.357,-1.709 3.743,-2.206 4.85,-0.049 v 0 c 2.098,4.644 6.779,7.87 12.212,7.87 v 0 c 0.597,0 1.189,-0.037 1.769,-0.116 v 0 c 0.408,-0.055 0.791,0.159 0.952,0.538 v 0 c 2.412,5.671 8.233,9.666 15.043,9.666 v 0 c 7.882,0 14.463,-5.377 15.915,-12.506 v 0 c 0.093,-0.457 0.532,-0.664 0.989,-0.575 v 0 c 7.771,1.509 11.122,-2.362 12.489,-5.19 v 0 c 0.414,-0.857 1.539,-1.056 2.235,-0.406 v 0 c 0.937,0.876 2.035,1.915 2.455,2.359 v 0 c 3.911,4.145 13.589,16.173 13.499,33.67 v 0 c -0.15,29.202 -23.965,48.768 -49.059,48.766 v 0 c -10.748,-0.001 -21.733,-3.591 -31.19,-11.551"
         transform="matrix(1.3333333,0,0,-1.3333333,0,240)"
         style="fill:url(#linearGradient20);stroke:none" />
      <path
         id="path21"
         d="m 0,0 -24.544,44.801 c -1.036,1.729 -2.243,2.764 -4.062,2.764 -1.9,0 -3.107,-1.035 -4.151,-2.764 L -57.298,-0.001 c -0.435,-0.794 0.233,-1.73 1.127,-1.585 0.766,0.125 1.554,0.19 2.354,0.19 1.507,0 2.959,-0.225 4.324,-0.649 0.489,-0.152 1.082,0.063 1.328,0.513 l 18.657,34.215 c 0.399,0.731 1.449,0.728 1.843,-0.006 L -17.64,14.01 c -0.554,0.05 -1.115,0.082 -1.687,0.082 -4.552,0 -8.609,-1.62 -11.263,-4.154 -0.866,-0.827 -0.031,-2.216 1.111,-1.856 1.622,0.512 3.375,0.79 5.201,0.79 0.387,0 0.77,-0.012 1.149,-0.037 5.516,-0.357 10.383,-3.756 13.039,-8.603 l 0.963,-1.759 c 0.246,-0.448 0.836,-0.664 1.325,-0.514 1.363,0.42 2.808,0.645 4.309,0.645 0.805,0 1.595,-0.065 2.367,-0.19 C -0.233,-1.732 0.435,-0.794 0,0"
         style="fill:#ffffff;fill-opacity:1;fill-rule:nonzero;stroke:none"
         transform="matrix(1.3333333,0,0,-1.3333333,239.6728,113.66573)"
         clip-path="url(#clipPath22)" />
      <g
         opacity="0.149994"
         id="g29"
         clip-path="url(#clipPath29)">
        <g
           mask="url(#mask22)"
           clip-path="url(#clipPath27)"
           id="g28">
          <path
             d="m 119.48,146.088 c -18.916,-15.598 -22.919,-44.725 -8.622,-64.91 1.896,-2.737 4.059,-5.28 6.464,-7.566 1.357,-1.709 3.741,-2.206 4.85,-0.049 0.34,0.753 0.754,1.463 1.222,2.134 -9.514,7.928 -15.583,19.859 -15.583,33.184 0,23.813 19.374,43.186 43.188,43.186 23.813,0 43.186,-19.373 43.186,-43.186 0,-12.996 -5.778,-24.661 -14.891,-32.585 1.052,-0.963 1.772,-2.065 2.246,-3.046 0.414,-0.856 1.539,-1.056 2.234,-0.406 0.937,0.876 2.037,1.915 2.456,2.36 3.911,4.144 13.588,16.172 13.499,33.669 -0.214,41.709 -48.712,63.76 -80.249,37.215"
             transform="matrix(1.3333333,0,0,-1.3333333,0,240)"
             style="fill:url(#linearGradient27);stroke:none"
             id="path28" />
        </g>
      </g>
    </g>
  </g>
</svg>
