<?xml version="1.0" encoding="UTF-8" standalone="no"?>
<!-- Created with Inkscape (http://www.inkscape.org/) -->

<svg
   version="1.1"
   id="svg1"
   width="429.33334"
   height="329.33334"
   viewBox="0 0 429.33334 329.33334"
   xmlns="http://www.w3.org/2000/svg"
   xmlns:svg="http://www.w3.org/2000/svg">
  <defs
     id="defs1">
    <clipPath
       clipPathUnits="userSpaceOnUse"
       id="clipPath1">
      <path
         d="M 0,0 H 320.99371 V 246.91237 H 0 Z"
         transform="matrix(1,0,0,-1,2.5000001e-8,246.91238)"
         id="path1" />
    </clipPath>
    <clipPath
       clipPathUnits="userSpaceOnUse"
       id="clipPath2">
      <path
         d="M 0,0 H 320.99371 V 246.91237 H 0 Z"
         transform="matrix(1,0,0,-1,2.5000001e-8,246.91238)"
         id="path2" />
    </clipPath>
    <clipPath
       clipPathUnits="userSpaceOnUse"
       id="clipPath3">
      <path
         d="M 0,0 H 320.99371 V 246.91237 H 0 Z"
         transform="matrix(1,0,0,-1,2.5000001e-8,246.91238)"
         id="path3" />
    </clipPath>
    <clipPath
       clipPathUnits="userSpaceOnUse"
       id="clipPath4">
      <path
         d="M 0,0 H 320.99371 V 246.91237 H 0 Z"
         transform="matrix(1,0,0,-1,2.5000001e-8,246.91238)"
         id="path4" />
    </clipPath>
    <clipPath
       clipPathUnits="userSpaceOnUse"
       id="clipPath5">
      <path
         d="M 0,0 H 320.99371 V 246.91237 H 0 Z"
         transform="matrix(1,0,0,-1,2.5000001e-8,246.91238)"
         id="path5" />
    </clipPath>
    <clipPath
       clipPathUnits="userSpaceOnUse"
       id="clipPath6">
      <path
         d="M 0,0 H 321 V 247 H 0 Z"
         transform="matrix(0.77066277,0.42040657,-0.42040657,0.77066277,1.8215564e-8,1.2436801e-8)"
         id="path6" />
    </clipPath>
    <clipPath
       clipPathUnits="userSpaceOnUse"
       id="clipPath7">
      <path
         d="M 58,118 H 173 V 246.914 H 58 Z"
         transform="matrix(1.3333333,0,0,1.3333333,1.3333333,0.11684133)"
         id="path7" />
    </clipPath>
    <clipPath
       clipPathUnits="userSpaceOnUse"
       id="clipPath8">
      <path
         d="M 58,118 H 173 V 246.914 H 58 Z"
         id="path8" />
    </clipPath>
    <clipPath
       clipPathUnits="userSpaceOnUse"
       id="clipPath9">
      <path
         d="M 58,118 H 173 V 246.914 H 58 Z"
         id="path9" />
    </clipPath>
    <clipPath
       clipPathUnits="userSpaceOnUse"
       id="clipPath10">
      <path
         d="M 58,118 H 173 V 246.914 H 58 Z"
         id="path10" />
    </clipPath>
    <clipPath
       clipPathUnits="userSpaceOnUse"
       id="clipPath11">
      <path
         d="M 58,118 H 173 V 246.914 H 58 Z"
         id="path11" />
    </clipPath>
    <clipPath
       clipPathUnits="userSpaceOnUse"
       id="clipPath12">
      <path
         d="M 58,118 H 173 V 246.914 H 58 Z"
         id="path12" />
    </clipPath>
    <clipPath
       clipPathUnits="userSpaceOnUse"
       id="clipPath13">
      <path
         d="M 0,0 H 320.99371 V 246.91237 H 0 Z"
         transform="matrix(1,0,0,-1,2.5000001e-8,246.91238)"
         id="path13" />
    </clipPath>
    <clipPath
       clipPathUnits="userSpaceOnUse"
       id="clipPath14">
      <path
         d="M 0,0 H 320.99371 V 246.91237 H 0 Z"
         transform="matrix(1,0,0,-1,2.5000001e-8,246.91238)"
         id="path14" />
    </clipPath>
    <clipPath
       clipPathUnits="userSpaceOnUse"
       id="clipPath15">
      <path
         d="M 0,0 H 320.99371 V 246.91237 H 0 Z"
         transform="matrix(1,0,0,-1,2.5000001e-8,246.91238)"
         id="path15" />
    </clipPath>
    <clipPath
       clipPathUnits="userSpaceOnUse"
       id="clipPath16">
      <path
         d="M 0,0 H 320.99371 V 246.91237 H 0 Z"
         transform="matrix(1,0,0,-1,2.5000001e-8,246.91238)"
         id="path16" />
    </clipPath>
    <clipPath
       clipPathUnits="userSpaceOnUse"
       id="clipPath17">
      <path
         d="M 0,0 H 320.99371 V 246.91237 H 0 Z"
         transform="matrix(1,0,0,-1,2.5000001e-8,246.91238)"
         id="path17" />
    </clipPath>
    <clipPath
       clipPathUnits="userSpaceOnUse"
       id="clipPath18">
      <path
         d="M 0,0 H 320.99371 V 246.91237 H 0 Z"
         transform="matrix(1,0,0,-1,2.5000001e-8,246.91238)"
         id="path18" />
    </clipPath>
    <clipPath
       clipPathUnits="userSpaceOnUse"
       id="clipPath19">
      <path
         d="M 0,0 H 320.99371 V 246.91237 H 0 Z"
         transform="matrix(1,0,0,-1,2.5000001e-8,246.91238)"
         id="path19" />
    </clipPath>
    <clipPath
       clipPathUnits="userSpaceOnUse"
       id="clipPath20">
      <path
         d="M 0,0 H 320.99371 V 246.91237 H 0 Z"
         transform="matrix(1,0,0,-1,2.5000001e-8,246.91238)"
         id="path20" />
    </clipPath>
    <clipPath
       clipPathUnits="userSpaceOnUse"
       id="clipPath21">
      <path
         d="M 0,0 H 320.99371 V 246.91237 H 0 Z"
         transform="matrix(1,0,0,-1,2.5000001e-8,246.91238)"
         id="path21" />
    </clipPath>
    <clipPath
       clipPathUnits="userSpaceOnUse"
       id="clipPath22">
      <path
         d="M 0,0 H 320.99371 V 246.91237 H 0 Z"
         transform="matrix(1,0,0,-1,-179.79288,80.266317)"
         id="path22" />
    </clipPath>
  </defs>
  <g
     id="g1">
    <g
       id="g43">
      <path
         d="m 111.809,111.66 c -1.547,2.731 -50.981,31.805 -54.121,31.832 C 54.547,143.516 4.648,115.242 3.059,112.535 1.465,109.828 1.004,52.48 2.551,49.75 4.098,47.016 53.535,17.941 56.676,17.914 c 3.136,-0.023 53.035,28.25 54.629,30.957 1.59,2.707 2.05,60.055 0.504,62.789 z"
         style="fill:#287fcc;fill-opacity:0.686275;fill-rule:nonzero;stroke:#000000;stroke-width:3.2;stroke-linecap:round;stroke-linejoin:round;stroke-miterlimit:4;stroke-dasharray:none;stroke-opacity:1"
         transform="matrix(1.3333333,0,0,1.3333333,1.3333333,0.11684133)"
         clip-path="url(#clipPath1)"
         id="path23" />
      <path
         d="m 78.211,85.848 c 0,11.754 -9.973,21.285 -22.273,21.285 -12.305,0 -22.278,-9.531 -22.278,-21.285 0,-11.754 11.485,-16.723 21.52,-41.047 14.57,27.644 23.031,30.57 23.031,41.047 z"
         style="fill:#ffffff;fill-opacity:1;fill-rule:nonzero;stroke:#000000;stroke-width:1.6;stroke-linecap:round;stroke-linejoin:round;stroke-miterlimit:4;stroke-dasharray:none;stroke-opacity:1"
         transform="matrix(1.3333333,0,0,1.3333333,1.3333333,0.11684133)"
         clip-path="url(#clipPath2)"
         id="path24" />
      <path
         d="m 85.812,105.84 c 0,6.695 -6.14,12.125 -13.714,12.125 -7.575,0 -13.715,-5.43 -13.715,-12.125 0,-6.695 7.07,-9.528 13.25,-23.383 8.969,15.746 14.179,17.414 14.179,23.383 z"
         style="fill:#ffffff;fill-opacity:1;fill-rule:nonzero;stroke:#000000;stroke-width:1.2;stroke-linecap:round;stroke-linejoin:round;stroke-miterlimit:4;stroke-dasharray:none;stroke-opacity:1"
         transform="matrix(1.3333333,0,0,1.3333333,1.3333333,0.11684133)"
         clip-path="url(#clipPath3)"
         id="path25" />
      <path
         d="m 228.988,111.66 c -1.55,2.731 -50.984,31.805 -54.125,31.832 -3.136,0.024 -53.035,-28.25 -54.629,-30.957 -1.589,-2.707 -2.05,-60.055 -0.504,-62.785 1.547,-2.734 50.981,-31.809 54.122,-31.836 3.14,-0.023 53.039,28.25 54.628,30.957 1.59,2.707 2.055,60.055 0.508,62.789 z"
         style="fill:#f3635c;fill-opacity:0.686275;fill-rule:nonzero;stroke:#000000;stroke-width:3.2;stroke-linecap:round;stroke-linejoin:round;stroke-miterlimit:4;stroke-dasharray:none;stroke-opacity:1"
         transform="matrix(1.3333333,0,0,1.3333333,1.3333333,0.11684133)"
         clip-path="url(#clipPath4)"
         id="path26" />
      <path
         d="m 170.012,213.48 c -1.551,2.735 -50.985,31.809 -54.125,31.832 -3.137,0.028 -53.035,-28.246 -54.629,-30.953 -1.59,-2.707 -2.055,-60.054 -0.504,-62.789 1.547,-2.73 50.98,-31.804 54.121,-31.832 3.141,-0.023 53.039,28.25 54.629,30.957 1.59,2.707 2.055,60.055 0.508,62.785 z"
         style="fill:#ffcf00;fill-opacity:0.480952;fill-rule:nonzero;stroke:none"
         transform="matrix(1.3333333,0,0,1.3333333,1.3333333,0.11684133)"
         clip-path="url(#clipPath5)"
         id="path27" />
      <g
         clip-path="url(#clipPath7)"
         id="g28">
        <path
           d="m 41.273,235.995 c -2.345,1.456 -52.664,3.08 -55.094,1.778 -2.429,-1.298 -28.998,-44.065 -29.088,-46.821 -0.087,-2.755 23.664,-47.146 26.009,-48.601 2.34,-1.454 52.659,-3.078 55.091,-1.779 2.43,1.302 28.999,44.069 29.086,46.824 0.087,2.754 -23.664,47.146 -26.004,48.599 z"
           style="fill:none;stroke:#000000;stroke-width:2.8092;stroke-linecap:round;stroke-linejoin:round;stroke-miterlimit:4;stroke-dasharray:none;stroke-opacity:1"
           transform="matrix(1.3333333,-0.72735067,0.72735067,1.3333333,1.3333333,0.11684133)"
           clip-path="url(#clipPath6)"
           id="path28" />
      </g>
      <path
         d="m 148.668,186.75 c -7.875,4.742 -24.211,3.652 -31.586,3.844 -12.785,0.328 -28.543,-0.821 -37.684,-4.664 0.125,-3.868 1.11,-8.996 6.903,-11.586 4.043,-1.805 9.926,1.129 9.926,1.129 0,0 -2.489,-4.782 0.617,-9.946 3.187,-5.304 8.754,-4.625 8.754,-4.625 6.816,0.868 7.468,5.789 7.468,5.789 0,0 -1.359,-5.57 2.782,-10.859 4.136,-5.293 9.121,-5.867 13.156,-5.496 7.5,0.695 13.266,11.562 9.269,19.426 4.387,-2.512 9.684,-1.68 13.215,2.34 3.532,4.019 2.918,10.023 -2.82,14.648 z"
         style="fill:#ffffff;fill-opacity:1;fill-rule:nonzero;stroke:#000000;stroke-width:1.6;stroke-linecap:round;stroke-linejoin:round;stroke-miterlimit:4;stroke-dasharray:none;stroke-opacity:1"
         transform="matrix(1.3333333,0,0,1.3333333,1.3333333,0.11684133)"
         clip-path="url(#clipPath8)"
         id="path29" />
      <path
         d="m 89.293,210.328 c 23.473,-7.949 42.937,1.32 50.105,1.078 10.375,-0.351 9.832,-9.582 4.645,-11.039"
         style="fill:none;stroke:#000000;stroke-width:0.8;stroke-linecap:butt;stroke-linejoin:miter;stroke-miterlimit:4;stroke-dasharray:none;stroke-opacity:1"
         transform="matrix(1.3333333,0,0,1.3333333,1.3333333,0.11684133)"
         clip-path="url(#clipPath9)"
         id="path30" />
      <path
         d="m 145.469,193.227 c -4.336,2.386 -13.332,1.839 -17.395,1.933 -7.039,0.168 -15.719,-0.41 -20.75,-2.348 0.067,-1.945 0.61,-4.527 3.801,-5.832 2.227,-0.91 5.465,0.567 5.465,0.567 0,0 -1.371,-2.406 0.34,-5.008 1.758,-2.672 4.82,-2.328 4.82,-2.328 3.754,0.434 4.113,2.914 4.113,2.914 0,0 -0.75,-2.805 1.532,-5.469 2.277,-2.664 5.023,-2.957 7.246,-2.765 4.129,0.347 7.304,5.82 5.105,9.781 2.414,-1.266 5.332,-0.848 7.277,1.176 1.942,2.027 1.606,5.05 -1.554,7.379 z"
         style="fill:#ffffff;fill-opacity:1;fill-rule:nonzero;stroke:#000000;stroke-width:1.2;stroke-linecap:round;stroke-linejoin:round;stroke-miterlimit:4;stroke-dasharray:none;stroke-opacity:1"
         transform="matrix(1.3333333,0,0,1.3333333,1.3333333,0.11684133)"
         clip-path="url(#clipPath10)"
         id="path31" />
      <path
         d="m 101.398,212.684 c 14.641,-4.418 28.809,2.496 35.981,2.254"
         style="fill:none;stroke:#000000;stroke-width:0.8;stroke-linecap:butt;stroke-linejoin:miter;stroke-miterlimit:4;stroke-dasharray:none;stroke-opacity:1"
         transform="matrix(1.3333333,0,0,1.3333333,1.3333333,0.11684133)"
         clip-path="url(#clipPath11)"
         id="path32" />
      <path
         d="m 95.934,204.273 c 14.644,-4.414 28.808,2.5 35.98,2.258"
         style="fill:none;stroke:#000000;stroke-width:0.8;stroke-linecap:butt;stroke-linejoin:miter;stroke-miterlimit:4;stroke-dasharray:none;stroke-opacity:1"
         transform="matrix(1.3333333,0,0,1.3333333,1.3333333,0.11684133)"
         clip-path="url(#clipPath12)"
         id="path33" />
      <path
         d="m 184.586,83.059 c 0,6.132 -4.973,11.109 -11.109,11.109 -6.137,0 -11.11,-4.977 -11.11,-11.109 0,-6.137 4.973,-11.11 11.11,-11.11 6.136,0 11.109,4.973 11.109,11.11 z"
         style="fill:#ffffff;fill-opacity:1;fill-rule:nonzero;stroke:#000000;stroke-width:1.6;stroke-linecap:round;stroke-linejoin:round;stroke-miterlimit:4;stroke-dasharray:none;stroke-opacity:1"
         transform="matrix(1.3333333,0,0,1.3333333,1.3333333,0.11684133)"
         clip-path="url(#clipPath13)"
         id="path34" />
      <path
         d="m 190.25,83.059 c 0,25.839 -7.512,46.793 -16.773,46.793 -9.262,0 -16.774,-20.954 -16.774,-46.793 0,-25.844 7.512,-46.793 16.774,-46.793 9.261,0 16.773,20.949 16.773,46.793 z"
         style="fill:none;stroke:#000000;stroke-width:0.8;stroke-linecap:round;stroke-linejoin:round;stroke-miterlimit:4;stroke-dasharray:none;stroke-opacity:1"
         transform="matrix(1.3333333,0,0,1.3333333,1.3333333,0.11684133)"
         clip-path="url(#clipPath14)"
         id="path35" />
      <path
         d="m 182.309,68.797 c 21.968,13.609 35.828,31.023 30.949,38.898 -4.879,7.875 -26.641,3.227 -48.613,-10.379 -21.969,-13.605 -35.829,-31.019 -30.95,-38.894 4.875,-7.875 26.641,-3.231 48.614,10.375 z"
         style="fill:none;stroke:#000000;stroke-width:0.8;stroke-linecap:round;stroke-linejoin:round;stroke-miterlimit:4;stroke-dasharray:none;stroke-opacity:1"
         transform="matrix(1.3333333,0,0,1.3333333,1.3333333,0.11684133)"
         clip-path="url(#clipPath15)"
         id="path36" />
      <path
         d="m 164.645,68.797 c -21.969,13.609 -35.829,31.023 -30.95,38.898 4.879,7.875 26.641,3.227 48.614,-10.379 21.968,-13.605 35.828,-31.019 30.949,-38.894 -4.879,-7.875 -26.641,-3.231 -48.613,10.375 z"
         style="fill:none;stroke:#000000;stroke-width:0.8;stroke-linecap:round;stroke-linejoin:round;stroke-miterlimit:4;stroke-dasharray:none;stroke-opacity:1"
         transform="matrix(1.3333333,0,0,1.3333333,1.3333333,0.11684133)"
         clip-path="url(#clipPath16)"
         id="path37" />
      <path
         d="m 187.965,44.207 c 0,2.801 -2.27,5.07 -5.07,5.07 -2.801,0 -5.071,-2.269 -5.071,-5.07 0,-2.797 2.27,-5.066 5.071,-5.066 2.8,0 5.07,2.269 5.07,5.066 z"
         style="fill:#ffffff;fill-opacity:1;fill-rule:nonzero;stroke:#000000;stroke-width:1.6;stroke-linecap:round;stroke-linejoin:round;stroke-miterlimit:4;stroke-dasharray:none;stroke-opacity:1"
         transform="matrix(1.3333333,0,0,1.3333333,1.3333333,0.11684133)"
         clip-path="url(#clipPath17)"
         id="path38" />
      <path
         d="m 142.051,93.062 c 0,2.801 -2.27,5.071 -5.071,5.071 -2.796,0 -5.066,-2.27 -5.066,-5.071 0,-2.796 2.27,-5.066 5.066,-5.066 2.801,0 5.071,2.27 5.071,5.066 z"
         style="fill:#ffffff;fill-opacity:1;fill-rule:nonzero;stroke:#000000;stroke-width:1.6;stroke-linecap:round;stroke-linejoin:round;stroke-miterlimit:4;stroke-dasharray:none;stroke-opacity:1"
         transform="matrix(1.3333333,0,0,1.3333333,1.3333333,0.11684133)"
         clip-path="url(#clipPath18)"
         id="path39" />
      <path
         d="m 191.496,109.711 c 0,2.801 -2.269,5.07 -5.07,5.07 -2.797,0 -5.067,-2.269 -5.067,-5.07 0,-2.797 2.27,-5.066 5.067,-5.066 2.801,0 5.07,2.269 5.07,5.066 z"
         style="fill:#ffffff;fill-opacity:1;fill-rule:nonzero;stroke:#000000;stroke-width:1.6;stroke-linecap:round;stroke-linejoin:round;stroke-miterlimit:4;stroke-dasharray:none;stroke-opacity:1"
         transform="matrix(1.3333333,0,0,1.3333333,1.3333333,0.11684133)"
         clip-path="url(#clipPath19)"
         id="path40" />
      <path
         d="m 92.008,19.184 28.765,-18.227 13.008,12.684 4.918,-3.934 3.485,17.492 -16.629,-5.984 3.683,-2.848 -8.109,-8.433 -23.961,16.605 z"
         style="fill:#ffffff;fill-opacity:1;fill-rule:nonzero;stroke:#000000;stroke-width:1.9136;stroke-linecap:round;stroke-linejoin:round;stroke-miterlimit:4;stroke-dasharray:none;stroke-opacity:1"
         transform="matrix(1.3333333,0,0,1.3333333,1.3333333,0.11684133)"
         clip-path="url(#clipPath20)"
         id="path41" />
      <path
         d="m 44.215,184.914 -29.156,-17.594 5.539,-17.3 -5.715,-2.645 14.09,-10.934 2.078,17.555 -4.192,-2.027 -3.925,11.023 25.558,14.02 z"
         style="fill:#ffffff;fill-opacity:1;fill-rule:nonzero;stroke:#000000;stroke-width:1.9136;stroke-linecap:round;stroke-linejoin:round;stroke-miterlimit:4;stroke-dasharray:none;stroke-opacity:1"
         transform="matrix(1.3333333,0,0,1.3333333,1.3333333,0.11684133)"
         clip-path="url(#clipPath21)"
         id="path42" />
      <path
         d="m 1.8174756,-13.487593 h 8.5312504 v 1.535156 H 3.6456006 v 3.9960938 H 10.067476 V -6.421187 H 3.6456006 v 4.8867188 H 10.512788 V 6.88e-4 H 1.8174756 Z m 10.1748044,0 h 2.460938 l 5.976562,11.285156 v -11.285156 h 1.769531 V 6.88e-4 H 19.738374 L 13.761811,-11.284468 V 6.88e-4 H 11.99228 Z M 27.830171,6.88e-4 22.673921,-13.487593 h 1.910156 l 4.277344,11.3554685 4.277344,-11.3554685 h 1.898437 L 29.892671,6.88e-4 Z m 7.675781,-13.488281 h 1.828125 V 6.88e-4 h -1.828125 z m 10.338867,7.160156 c 0.389649,0.1347656 0.767578,0.4189453 1.136719,0.8554688 0.375,0.430664 0.75,1.0253906 1.125,1.78125 L 49.958101,6.88e-4 h -1.96875 L 46.266694,-3.4563432 C 45.821382,-4.3616167 45.387788,-4.9592729 44.965913,-5.249312 44.549897,-5.5452104 43.981538,-5.6946245 43.254976,-5.6946245 H 41.274507 V 6.88e-4 h -1.828125 v -13.488281 h 4.125 c 1.538086,0 2.686523,0.325195 3.445312,0.972656 0.75586,0.641602 1.136719,1.611328 1.136719,2.90625 0,0.8525391 -0.199219,1.5585938 -0.597656,2.1210938 -0.392578,0.5625 -0.960938,0.9492187 -1.710938,1.1601562 z m -4.570312,-5.660156 v 4.7929685 h 2.296875 c 0.873047,0 1.535156,-0.2021484 1.980469,-0.609375 0.451171,-0.4130859 0.679687,-1.0136719 0.679687,-1.8046875 0,-0.788086 -0.228516,-1.382812 -0.679687,-1.78125 -0.445313,-0.398437 -1.107422,-0.597656 -1.980469,-0.597656 z m 15.002929,-0.257813 c -1.321289,0 -2.373046,0.492188 -3.152343,1.476563 -0.782227,0.9843748 -1.171875,2.332031 -1.171875,4.0429685 0,1.6962891 0.389648,3.0410156 1.171875,4.03125 0.779297,0.984375 1.831054,1.4765625 3.152343,1.4765625 1.327149,0 2.378907,-0.4921875 3.152344,-1.4765625 0.773438,-0.9902344 1.160156,-2.3349609 1.160156,-4.03125 0,-1.7109375 -0.386718,-3.0585937 -1.160156,-4.0429685 -0.773437,-0.984375 -1.825195,-1.476563 -3.152344,-1.476563 z m 0,-1.488281 c 1.889649,0 3.401368,0.638672 4.535157,1.910156 1.130859,1.265625 1.699218,2.964844 1.699218,5.0976565 0,2.1269531 -0.568359,3.8203125 -1.699218,5.0859375 -1.133789,1.265625 -2.645508,1.8984375 -4.535157,1.8984375 -1.898437,0 -3.416015,-0.62695312 -4.546875,-1.8867187 -1.133789,-1.265625 -1.699218,-2.9648438 -1.699218,-5.0976563 0,-2.1328125 0.565429,-3.8320315 1.699218,-5.0976565 1.13086,-1.271484 2.648438,-1.910156 4.546875,-1.910156 z m 7.587891,0.246094 h 2.460938 l 5.976562,11.285156 v -11.285156 h 1.769531 V 6.88e-4 H 71.611421 L 65.634858,-11.284468 V 6.88e-4 h -1.769531 z m 12.339844,0 h 2.71875 l 3.445312,9.175781 3.457032,-9.175781 h 2.71875 V 6.88e-4 h -1.78125 v -11.847656 l -3.480469,9.2578123 H 81.455171 L 77.974702,-11.846968 V 6.88e-4 h -1.769531 z m 14.466797,0 h 8.53125 v 1.535156 h -6.703125 v 3.9960938 h 6.421875 v 1.5351562 h -6.421875 v 4.8867188 H 99.36728 V 6.88e-4 h -8.695312 z m 10.174802,0 h 2.46094 l 5.97656,11.285156 v -11.285156 h 1.76953 V 6.88e-4 h -2.46093 L 102.6163,-11.284468 V 6.88e-4 h -1.76953 z m 10.46485,0 h 11.41406 v 1.535156 h -4.78125 V 6.88e-4 h -1.83985 v -11.953125 h -4.79296 z m 14.74804,1.792969 -2.48437,6.7148433 h 4.96875 z m -1.03125,-1.792969 h 2.0625 l 5.14453,13.488281 h -1.89843 l -1.23047,-3.4570312 h -6.08203 L 121.80576,6.88e-4 h -1.9336 z m 7.67578,0 h 1.82813 v 11.9531248 h 6.5625 V 6.88e-4 h -8.39063 z M 3.6456006,11.13643 v 5.0625 h 2.296875 c 0.84375,0 1.4941406,-0.216797 1.9570312,-0.65625 0.46875,-0.436523 0.703125,-1.060547 0.703125,-1.875 0,-0.811523 -0.234375,-1.435547 -0.703125,-1.875 C 7.4366162,11.356157 6.7862256,11.13643 5.9424756,11.13643 Z M 1.8174756,9.6364302 h 4.125 c 1.5058593,0 2.6484375,0.3457031 3.421875,1.0312498 0.7734374,0.679688 1.1601564,1.681641 1.1601564,3 0,1.330078 -0.386719,2.332031 -1.1601564,3.011719 -0.7734375,0.679687 -1.9160157,1.019531 -3.421875,1.019531 h -2.296875 v 5.425781 h -1.828125 z m 9.6562504,0 h 1.828125 V 15.16768 h 6.632812 V 9.6364302 h 1.816406 V 23.124711 h -1.816406 v -6.421875 h -6.632812 v 6.421875 h -1.828125 z m 10.561523,0 h 1.957031 l 3.738281,5.5429688 3.714844,-5.5429688 h 1.96875 l -4.769531,7.0664058 v 6.421875 H 26.80478 v -6.421875 z m 19.722656,0.4453128 v 1.78125 c -0.697265,-0.333985 -1.353515,-0.580078 -1.96875,-0.738282 -0.609375,-0.164062 -1.201172,-0.246093 -1.769531,-0.246093 -0.993164,0 -1.757813,0.193359 -2.296875,0.574218 -0.539063,0.38379 -0.808594,0.931641 -0.808594,1.640625 0,0.603516 0.175781,1.054688 0.527344,1.359375 0.357422,0.298829 1.037109,0.539063 2.039062,0.726563 l 1.101563,0.234375 c 1.365234,0.257812 2.370117,0.714844 3.011719,1.371094 0.647461,0.65039 0.972656,1.520508 0.972656,2.613281 0,1.3125 -0.439453,2.305664 -1.3125,2.976562 -0.875977,0.673829 -2.162109,1.007813 -3.855469,1.007813 -0.632812,0 -1.3125,-0.07617 -2.039062,-0.222656 -0.720703,-0.140625 -1.461914,-0.351563 -2.226563,-0.632813 v -1.875 c 0.741211,0.416016 1.464844,0.726563 2.167969,0.9375 0.708984,0.210938 1.40918,0.316406 2.097656,0.316406 1.045899,0 1.851563,-0.202148 2.414063,-0.609375 0.568359,-0.413085 0.855468,-0.999023 0.855468,-1.757812 0,-0.662109 -0.205078,-1.177734 -0.609375,-1.546875 -0.407226,-0.375 -1.075195,-0.65625 -2.003906,-0.84375 l -1.113281,-0.222656 c -1.359375,-0.272461 -2.34375,-0.697266 -2.953125,-1.277344 -0.609375,-0.577148 -0.914063,-1.376953 -0.914063,-2.402344 0,-1.195312 0.416016,-2.135742 1.253907,-2.824219 0.84375,-0.6855464 2.003906,-1.0312496 3.480468,-1.0312496 0.632813,0 1.277344,0.058594 1.933594,0.1757813 0.65625,0.1113281 1.327149,0.28125 2.015625,0.5156253 z m 2.147461,-0.4453128 h 1.828125 V 23.124711 h -1.828125 z m 14.05957,1.0429688 v 1.921875 c -0.618164,-0.568359 -1.274414,-0.996094 -1.96875,-1.277344 -0.697265,-0.287109 -1.435546,-0.433594 -2.214843,-0.433594 -1.541016,0 -2.71875,0.47461 -3.539063,1.417969 -0.820312,0.9375 -1.230469,2.302735 -1.230469,4.089844 0,1.775391 0.410157,3.134766 1.230469,4.078125 0.820313,0.9375 1.998047,1.40625 3.539063,1.40625 0.779297,0 1.517578,-0.140625 2.214843,-0.421875 0.694336,-0.28125 1.350586,-0.706055 1.96875,-1.277344 v 1.898438 c -0.641601,0.439453 -1.321289,0.767578 -2.039062,0.984375 -0.711914,0.208008 -1.461914,0.316406 -2.25,0.316406 -2.047852,0 -3.65625,-0.624023 -4.828125,-1.875 -1.171875,-1.248047 -1.757813,-2.953125 -1.757813,-5.109375 0,-2.170898 0.585938,-3.881836 1.757813,-5.132813 1.171875,-1.248046 2.780273,-1.8749996 4.828125,-1.8749996 0.802734,0 1.561523,0.1113282 2.273437,0.328125 0.717774,0.2109375 1.388672,0.5332036 2.015625,0.9609376 z m 9.398438,-0.597656 v 1.78125 c -0.697266,-0.333985 -1.353516,-0.580078 -1.96875,-0.738282 -0.609375,-0.164062 -1.201172,-0.246093 -1.769531,-0.246093 -0.993164,0 -1.757813,0.193359 -2.296875,0.574218 -0.539063,0.38379 -0.808594,0.931641 -0.808594,1.640625 0,0.603516 0.175781,1.054688 0.527344,1.359375 0.357422,0.298829 1.037109,0.539063 2.039062,0.726563 l 1.101563,0.234375 c 1.365234,0.257812 2.370117,0.714844 3.011718,1.371094 0.647461,0.65039 0.972657,1.520508 0.972657,2.613281 0,1.3125 -0.439453,2.305664 -1.3125,2.976562 -0.875977,0.673829 -2.16211,1.007813 -3.855469,1.007813 -0.632813,0 -1.3125,-0.07617 -2.039063,-0.222656 -0.720703,-0.140625 -1.461914,-0.351563 -2.226562,-0.632813 v -1.875 c 0.741211,0.416016 1.464844,0.726563 2.167969,0.9375 0.708984,0.210938 1.409179,0.316406 2.097656,0.316406 1.045898,0 1.851562,-0.202148 2.414062,-0.609375 0.56836,-0.413085 0.855469,-0.999023 0.855469,-1.757812 0,-0.662109 -0.205078,-1.177734 -0.609375,-1.546875 -0.407226,-0.375 -1.075195,-0.65625 -2.003906,-0.84375 l -1.113281,-0.222656 c -1.359375,-0.272461 -2.34375,-0.697266 -2.953125,-1.277344 -0.609375,-0.577148 -0.914063,-1.376953 -0.914063,-2.402344 0,-1.195312 0.416016,-2.135742 1.253906,-2.824219 0.84375,-0.6855464 2.003907,-1.0312496 3.480469,-1.0312496 0.632813,0 1.277344,0.058594 1.933594,0.1757813 0.65625,0.1113281 1.327148,0.28125 2.015625,0.5156253 z M 11.016694,44.32686 V 40.705766 H 8.0284131 v -1.5 h 4.7929689 v 5.789063 c -0.703125,0.500976 -1.482422,0.878906 -2.332031,1.136718 -0.8525395,0.249024 -1.7578129,0.375 -2.7187504,0.375 -2.109375,0 -3.7587891,-0.612304 -4.9453125,-1.839843 -1.1894532,-1.233399 -1.78125,-2.947266 -1.78125,-5.144532 0,-2.208984 0.5917968,-3.928711 1.78125,-5.15625 1.1865234,-1.233398 2.8359375,-1.851562 4.9453125,-1.851562 0.8818359,0 1.7167968,0.111328 2.5078124,0.328125 0.788086,0.219726 1.517578,0.539062 2.191406,0.960937 v 1.933594 C 11.795991,35.168657 11.078218,34.737993 10.313569,34.447954 9.5547802,34.160844 8.7579052,34.01436 7.9229443,34.01436 c -1.6494141,0 -2.8886719,0.462891 -3.7148437,1.382812 -0.8291016,0.922852 -1.2421875,2.296875 -1.2421875,4.125 0,1.813477 0.4130859,3.181641 1.2421875,4.101563 0.8261718,0.922851 2.0654296,1.382812 3.7148437,1.382812 0.6474609,0 1.2216797,-0.05273 1.7226563,-0.164062 0.5068354,-0.108399 0.9638674,-0.28125 1.3710934,-0.515625 z m 10.019532,-4.40625 c 0.389648,0.134766 0.767578,0.418945 1.136718,0.855469 0.375,0.430664 0.75,1.02539 1.125,1.78125 l 1.851563,3.691406 h -1.96875 l -1.722656,-3.457031 c -0.445313,-0.905274 -0.878907,-1.50293 -1.300782,-1.792969 -0.416015,-0.295899 -0.984375,-0.445313 -1.710937,-0.445313 h -1.980469 v 5.695313 H 14.637788 V 32.760454 h 4.125 c 1.538086,0 2.686523,0.325195 3.445313,0.972656 0.755859,0.641601 1.136718,1.611328 1.136718,2.90625 0,0.852539 -0.199218,1.558594 -0.597656,2.121094 -0.392578,0.5625 -0.960937,0.949218 -1.710937,1.160156 z m -4.570313,-5.660156 v 4.792968 h 2.296875 c 0.873047,0 1.535156,-0.202148 1.980469,-0.609375 0.451172,-0.413086 0.679687,-1.013671 0.679687,-1.804687 0,-0.788086 -0.228515,-1.382813 -0.679687,-1.78125 -0.445313,-0.398438 -1.107422,-0.597656 -1.980469,-0.597656 z m 15.00293,-0.257813 c -1.321289,0 -2.373047,0.492188 -3.152344,1.476563 -0.782227,0.984375 -1.171875,2.332031 -1.171875,4.042968 0,1.696289 0.389648,3.041016 1.171875,4.03125 0.779297,0.984375 1.831055,1.476563 3.152344,1.476563 1.327148,0 2.378906,-0.492188 3.152343,-1.476563 0.773438,-0.990234 1.160157,-2.334961 1.160157,-4.03125 0,-1.710937 -0.386719,-3.058593 -1.160157,-4.042968 -0.773437,-0.984375 -1.825195,-1.476563 -3.152343,-1.476563 z m 0,-1.488281 c 1.889648,0 3.401367,0.638672 4.535156,1.910156 1.130859,1.265625 1.699219,2.964844 1.699219,5.097656 0,2.126954 -0.56836,3.820313 -1.699219,5.085938 -1.133789,1.265625 -2.645508,1.898437 -4.535156,1.898437 -1.898438,0 -3.416016,-0.626953 -4.546875,-1.886718 -1.133789,-1.265625 -1.699219,-2.964844 -1.699219,-5.097657 0,-2.132812 0.56543,-3.832031 1.699219,-5.097656 1.130859,-1.271484 2.648437,-1.910156 4.546875,-1.910156 z m 7.376953,0.246094 h 1.839844 v 8.191406 c 0,1.447266 0.260742,2.490234 0.785156,3.128906 0.521484,0.632813 1.371094,0.949219 2.542969,0.949219 1.171875,0 2.018554,-0.316406 2.542968,-0.949219 0.521485,-0.638672 0.785157,-1.68164 0.785157,-3.128906 v -8.191406 h 1.828125 v 8.414062 c 0,1.766602 -0.433594,3.09961 -1.300782,3.996094 -0.867187,0.890625 -2.15332,1.335937 -3.855468,1.335937 -1.705079,0 -2.994141,-0.445312 -3.867188,-1.335937 -0.867187,-0.896484 -1.300781,-2.229492 -1.300781,-3.996094 z m 14.06543,1.5 v 5.0625 h 2.296875 c 0.84375,0 1.49414,-0.216797 1.957031,-0.65625 0.46875,-0.436524 0.703125,-1.060547 0.703125,-1.875 0,-0.811524 -0.234375,-1.435547 -0.703125,-1.875 -0.462891,-0.436524 -1.113281,-0.65625 -1.957031,-0.65625 z m -1.828125,-1.5 h 4.125 c 1.505859,0 2.648437,0.345703 3.421875,1.03125 0.773437,0.679687 1.160156,1.68164 1.160156,3 0,1.330078 -0.386719,2.332031 -1.160156,3.011718 -0.773438,0.679688 -1.916016,1.019532 -3.421875,1.019532 h -2.296875 v 5.425781 h -1.828125 z m 0,0"
         style="fill:#000000;fill-opacity:1;fill-rule:nonzero;stroke:none"
         aria-label="ENVIRONMENTAL&#10;PHYSICS&#10;GROUP"
         transform="matrix(1.3333333,0,0,1.3333333,241.05717,222.31158)"
         clip-path="url(#clipPath22)"
         id="path43" />
    </g>
  </g>
</svg>
