<?xml version="1.0" encoding="UTF-8" standalone="no"?>
<!-- Created with Inkscape (http://www.inkscape.org/) -->

<svg
   version="1.1"
   id="svg1"
   width="427.22986"
   height="37.851997"
   viewBox="0 0 427.22986 37.851997"
   xmlns="http://www.w3.org/2000/svg"
   xmlns:svg="http://www.w3.org/2000/svg">
  <defs
     id="defs1">
    <clipPath
       clipPathUnits="userSpaceOnUse"
       id="clipPath1">
      <path
         d="M 0,842 H 595 V 0 H 0 Z"
         transform="translate(-131.5659,-435.19431)"
         id="path1" />
    </clipPath>
    <clipPath
       clipPathUnits="userSpaceOnUse"
       id="clipPath2">
      <path
         d="M 0,0 H 595 V 842 H 0 Z"
         transform="translate(-171.6987,-420.14841)"
         id="path2" />
    </clipPath>
    <clipPath
       clipPathUnits="userSpaceOnUse"
       id="clipPath3">
      <path
         d="M 0,842 H 595 V 0 H 0 Z"
         transform="translate(-189.7417,-423.79301)"
         id="path3" />
    </clipPath>
    <clipPath
       clipPathUnits="userSpaceOnUse"
       id="clipPath4">
      <path
         d="M 0,842 H 595 V 0 H 0 Z"
         transform="translate(-202.15331,-420.14841)"
         id="path4" />
    </clipPath>
    <clipPath
       clipPathUnits="userSpaceOnUse"
       id="clipPath5">
      <path
         d="M 0,842 H 595 V 0 H 0 Z"
         transform="translate(2.5000001e-6)"
         id="path5" />
    </clipPath>
    <clipPath
       clipPathUnits="userSpaceOnUse"
       id="clipPath6">
      <path
         d="M 0,842 H 595 V 0 H 0 Z"
         transform="translate(-220.54791,-424.45261)"
         id="path6" />
    </clipPath>
    <clipPath
       clipPathUnits="userSpaceOnUse"
       id="clipPath7">
      <path
         d="M 0,842 H 595 V 0 H 0 Z"
         transform="translate(-233.71631,-420.14841)"
         id="path7" />
    </clipPath>
    <clipPath
       clipPathUnits="userSpaceOnUse"
       id="clipPath8">
      <path
         d="M 0,842 H 595 V 0 H 0 Z"
         transform="translate(-248.65971,-423.79301)"
         id="path8" />
    </clipPath>
    <clipPath
       clipPathUnits="userSpaceOnUse"
       id="clipPath9">
      <path
         d="M 0,842 H 595 V 0 H 0 Z"
         transform="translate(-259.68461,-420.14841)"
         id="path9" />
    </clipPath>
    <clipPath
       clipPathUnits="userSpaceOnUse"
       id="clipPath10">
      <path
         d="M 0,842 H 595 V 0 H 0 Z"
         transform="translate(-279.41501,-423.71291)"
         id="path10" />
    </clipPath>
    <clipPath
       clipPathUnits="userSpaceOnUse"
       id="clipPath11">
      <path
         d="M 0,842 H 595 V 0 H 0 Z"
         transform="translate(-301.83401,-423.26031)"
         id="path11" />
    </clipPath>
    <clipPath
       clipPathUnits="userSpaceOnUse"
       id="clipPath12">
      <path
         d="M 0,842 H 595 V 0 H 0 Z"
         transform="translate(2.5000001e-6)"
         id="path12" />
    </clipPath>
    <clipPath
       clipPathUnits="userSpaceOnUse"
       id="clipPath13">
      <path
         d="M 0,842 H 595 V 0 H 0 Z"
         transform="translate(-316.70511,-420.14841)"
         id="path13" />
    </clipPath>
    <clipPath
       clipPathUnits="userSpaceOnUse"
       id="clipPath14">
      <path
         d="M 0,842 H 595 V 0 H 0 Z"
         transform="translate(-329.32811,-420.14841)"
         id="path14" />
    </clipPath>
    <clipPath
       clipPathUnits="userSpaceOnUse"
       id="clipPath15">
      <path
         d="M 0,842 H 595 V 0 H 0 Z"
         transform="translate(-349.01951,-423.26031)"
         id="path15" />
    </clipPath>
    <clipPath
       clipPathUnits="userSpaceOnUse"
       id="clipPath16">
      <path
         d="M 0,842 H 595 V 0 H 0 Z"
         transform="translate(-356.05471,-420.14841)"
         id="path16" />
    </clipPath>
    <clipPath
       clipPathUnits="userSpaceOnUse"
       id="clipPath17">
      <path
         d="M 0,842 H 595 V 0 H 0 Z"
         transform="translate(-385.50201,-424.03811)"
         id="path17" />
    </clipPath>
    <clipPath
       clipPathUnits="userSpaceOnUse"
       id="clipPath18">
      <path
         d="M 0,842 H 595 V 0 H 0 Z"
         transform="translate(-394.05081,-420.14841)"
         id="path18" />
    </clipPath>
    <clipPath
       clipPathUnits="userSpaceOnUse"
       id="clipPath19">
      <path
         d="M 0,842 H 595 V 0 H 0 Z"
         transform="translate(-406.67381,-420.14841)"
         id="path19" />
    </clipPath>
    <clipPath
       clipPathUnits="userSpaceOnUse"
       id="clipPath20">
      <path
         d="M 0,842 H 595 V 0 H 0 Z"
         transform="translate(-422.28911,-420.14841)"
         id="path20" />
    </clipPath>
    <clipPath
       clipPathUnits="userSpaceOnUse"
       id="clipPath21">
      <path
         d="M 0,842 H 595 V 0 H 0 Z"
         transform="translate(-433.18751,-425.10691)"
         id="path21" />
    </clipPath>
    <clipPath
       clipPathUnits="userSpaceOnUse"
       id="clipPath22">
      <path
         d="M 0,842 H 595 V 0 H 0 Z"
         transform="translate(-445.36331,-420.14841)"
         id="path22" />
    </clipPath>
    <clipPath
       clipPathUnits="userSpaceOnUse"
       id="clipPath23">
      <path
         d="M 0,842 H 595 V 0 H 0 Z"
         transform="translate(-172.5874,-413.65231)"
         id="path23" />
    </clipPath>
    <clipPath
       clipPathUnits="userSpaceOnUse"
       id="clipPath24">
      <path
         d="M 0,842 H 595 V 0 H 0 Z"
         transform="translate(-181.7964,-413.42581)"
         id="path24" />
    </clipPath>
    <clipPath
       clipPathUnits="userSpaceOnUse"
       id="clipPath25">
      <path
         d="M 0,842 H 595 V 0 H 0 Z"
         transform="translate(-191.99711,-410.64841)"
         id="path25" />
    </clipPath>
    <clipPath
       clipPathUnits="userSpaceOnUse"
       id="clipPath26">
      <path
         d="M 0,842 H 595 V 0 H 0 Z"
         transform="translate(-201.9009,-413.00001)"
         id="path26" />
    </clipPath>
    <clipPath
       clipPathUnits="userSpaceOnUse"
       id="clipPath27">
      <path
         d="M 0,842 H 595 V 0 H 0 Z"
         transform="translate(-210.60551,-410.64841)"
         id="path27" />
    </clipPath>
    <clipPath
       clipPathUnits="userSpaceOnUse"
       id="clipPath28">
      <path
         d="M 0,842 H 595 V 0 H 0 Z"
         transform="translate(-221.54831,-411.32421)"
         id="path28" />
    </clipPath>
  </defs>
  <g
     id="g1"
     transform="translate(-0.75453335,-1.0742667)">
    <g
       id="g56">
      <path
         d="m 0,0 h 11.937 c 1.67,-9.035 8.403,-16.221 17.043,-18.31 V -28.389 H 28.557 L 4.783,-9.718 V -28.389 H 0 Z M 17.632,0 H 28.98 V -12.511 C 23.384,-10.668 19.046,-5.927 17.632,0 m 3.367,-28.389 H 9.496 v 8.861 l 11.503,-8.861"
         style="fill:#e51636;fill-opacity:1;fill-rule:evenodd;stroke:none"
         transform="matrix(1.3333333,0,0,-1.3333333,0.75453333,1.0742667)"
         clip-path="url(#clipPath1)"
         id="path29" />
      <path
         d="M 0,0 V 11.095 H 1.506 L 7.334,2.384 v 8.711 H 8.741 V 0 H 7.235 L 1.408,8.718 V 0 Z"
         style="fill:#4f4c4d;fill-opacity:1;fill-rule:nonzero;stroke:none"
         transform="matrix(1.3333333,0,0,-1.3333333,54.264933,21.135467)"
         clip-path="url(#clipPath2)"
         id="path30" />
      <path
         d="M 0,0 H 3.009 L 2.083,2.458 C 1.8,3.205 1.59,3.818 1.453,4.299 1.34,3.729 1.181,3.165 0.975,2.604 Z M -2.561,-3.645 0.848,5.231 H 2.113 L 5.746,-3.645 H 4.408 l -1.035,2.688 h -3.712 l -0.975,-2.688 z"
         style="fill:#4f4c4d;fill-opacity:1;fill-rule:nonzero;stroke:none"
         transform="matrix(1.3333333,0,0,-1.3333333,78.322267,16.276)"
         clip-path="url(#clipPath3)"
         id="path31" />
      <path
         d="M 0,0 V 7.828 H -2.924 V 8.875 H 4.111 V 7.828 H 1.175 V 0 Z"
         style="fill:#4f4c4d;fill-opacity:1;fill-rule:nonzero;stroke:none"
         transform="matrix(1.3333333,0,0,-1.3333333,94.871067,21.135467)"
         clip-path="url(#clipPath4)"
         id="path32" />
      <path
         d="m 212.059,429.024 h 1.175 v -8.875 h -1.175 z"
         style="fill:#4f4c4d;fill-opacity:1;fill-rule:nonzero;stroke:none"
         transform="matrix(1.3333333,0,0,-1.3333333,-174.66667,581.33333)"
         clip-path="url(#clipPath5)"
         id="path33" />
      <path
         d="m 0,0 c 0,-1.069 0.288,-1.912 0.863,-2.528 0.575,-0.615 1.296,-0.923 2.164,-0.923 0.884,0 1.612,0.311 2.183,0.932 0.571,0.622 0.856,1.504 0.856,2.646 C 6.066,0.85 5.944,1.48 5.7,2.02 5.456,2.558 5.099,2.976 4.628,3.273 4.158,3.569 3.63,3.718 3.045,3.718 2.214,3.718 1.499,3.432 0.899,2.861 0.299,2.29 0,1.336 0,0 m -1.211,0.019 c 0,1.473 0.396,2.626 1.187,3.46 0.791,0.833 1.812,1.25 3.063,1.25 0.819,0 1.558,-0.196 2.216,-0.587 C 5.913,3.75 6.415,3.204 6.76,2.504 7.105,1.803 7.277,1.009 7.277,0.121 7.277,-0.779 7.096,-1.584 6.732,-2.294 6.369,-3.005 5.854,-3.542 5.188,-3.908 4.522,-4.273 3.804,-4.457 3.033,-4.457 c -0.835,0 -1.582,0.203 -2.24,0.606 -0.658,0.404 -1.156,0.955 -1.496,1.653 -0.339,0.698 -0.508,1.437 -0.508,2.217"
         style="fill:#4f4c4d;fill-opacity:1;fill-rule:nonzero;stroke:none"
         transform="matrix(1.3333333,0,0,-1.3333333,119.3972,15.396533)"
         clip-path="url(#clipPath6)"
         id="path34" />
      <path
         d="M 0,0 V 8.875 H 1.205 L 5.867,1.907 V 8.875 H 6.993 V 0 H 5.789 L 1.126,6.975 V 0 Z"
         style="fill:#4f4c4d;fill-opacity:1;fill-rule:nonzero;stroke:none"
         transform="matrix(1.3333333,0,0,-1.3333333,136.95507,21.135467)"
         clip-path="url(#clipPath7)"
         id="path35" />
      <path
         d="M 0,0 H 3.009 L 2.083,2.458 C 1.8,3.205 1.59,3.818 1.453,4.299 1.34,3.729 1.181,3.165 0.975,2.604 Z M -2.561,-3.645 0.848,5.231 H 2.113 L 5.746,-3.645 H 4.408 l -1.035,2.688 h -3.712 l -0.975,-2.688 z"
         style="fill:#4f4c4d;fill-opacity:1;fill-rule:nonzero;stroke:none"
         transform="matrix(1.3333333,0,0,-1.3333333,156.8796,16.276)"
         clip-path="url(#clipPath8)"
         id="path36" />
      <path
         d="M 0,0 V 8.875 H 1.175 V 1.047 H 5.546 V 0 Z"
         style="fill:#4f4c4d;fill-opacity:1;fill-rule:nonzero;stroke:none"
         transform="matrix(1.3333333,0,0,-1.3333333,171.57947,21.135467)"
         clip-path="url(#clipPath9)"
         id="path37" />
      <path
         d="m 0,0 1.385,0.121 c 0.066,-0.555 0.218,-1.011 0.458,-1.366 0.24,-0.356 0.612,-0.644 1.116,-0.863 0.505,-0.22 1.072,-0.33 1.703,-0.33 0.56,0 1.055,0.084 1.484,0.25 0.428,0.167 0.748,0.395 0.957,0.686 0.209,0.29 0.314,0.606 0.314,0.949 0,0.348 -0.101,0.652 -0.303,0.912 C 6.913,0.619 6.58,0.837 6.115,1.014 5.817,1.13 5.159,1.31 4.14,1.555 3.121,1.8 2.407,2.031 1.998,2.248 1.468,2.525 1.073,2.869 0.813,3.281 0.554,3.692 0.424,4.152 0.424,4.662 c 0,0.56 0.159,1.083 0.477,1.57 C 1.218,6.719 1.683,7.089 2.293,7.341 2.904,7.593 3.583,7.72 4.329,7.72 5.151,7.72 5.877,7.587 6.505,7.322 7.133,7.057 7.617,6.667 7.955,6.153 8.292,5.638 8.474,5.056 8.5,4.404 L 7.091,4.299 C 7.016,5 6.76,5.53 6.323,5.888 5.887,6.246 5.242,6.425 4.39,6.425 3.501,6.425 2.854,6.263 2.448,5.937 2.042,5.612 1.839,5.219 1.839,4.76 1.839,4.362 1.983,4.034 2.271,3.776 2.553,3.519 3.291,3.255 4.484,2.985 5.677,2.715 6.496,2.479 6.94,2.278 7.586,1.98 8.063,1.603 8.371,1.146 8.678,0.689 8.833,0.164 8.833,-0.432 8.833,-1.022 8.664,-1.578 8.326,-2.101 7.987,-2.623 7.501,-3.029 6.868,-3.318 6.235,-3.609 5.522,-3.754 4.73,-3.754 c -1.004,0 -1.845,0.147 -2.524,0.439 -0.679,0.293 -1.211,0.732 -1.597,1.32 C 0.223,-1.407 0.02,-0.742 0,0"
         style="fill:#4f4c4d;fill-opacity:1;fill-rule:nonzero;stroke:none"
         transform="matrix(1.3333333,0,0,-1.3333333,197.88667,16.3828)"
         clip-path="url(#clipPath10)"
         id="path38" />
      <path
         d="m 0,0 1.176,-0.297 c -0.248,-0.965 -0.69,-1.7 -1.33,-2.207 -0.639,-0.506 -1.422,-0.76 -2.346,-0.76 -0.957,0 -1.734,0.195 -2.334,0.585 -0.6,0.389 -1.056,0.953 -1.369,1.692 -0.312,0.738 -0.469,1.532 -0.469,2.38 0,0.924 0.176,1.73 0.53,2.418 0.353,0.689 0.855,1.211 1.507,1.568 0.653,0.358 1.369,0.536 2.153,0.536 0.888,0 1.634,-0.226 2.24,-0.678 C 0.363,4.785 0.785,4.149 1.023,3.33 L -0.133,3.058 C -0.338,3.703 -0.637,4.173 -1.029,4.468 -1.42,4.763 -1.912,4.91 -2.506,4.91 -3.189,4.91 -3.758,4.747 -4.217,4.42 -4.676,4.093 -4.997,3.654 -5.182,3.103 -5.369,2.552 -5.461,1.984 -5.461,1.398 c 0,-0.754 0.11,-1.413 0.33,-1.977 0.22,-0.563 0.563,-0.984 1.026,-1.262 0.464,-0.278 0.966,-0.418 1.507,-0.418 0.659,0 1.215,0.19 1.672,0.57 C -0.471,-1.31 -0.162,-0.747 0,0"
         style="fill:#4f4c4d;fill-opacity:1;fill-rule:nonzero;stroke:none"
         transform="matrix(1.3333333,0,0,-1.3333333,227.77867,16.986267)"
         clip-path="url(#clipPath11)"
         id="path39" />
      <path
         d="m 309.045,429.024 h 1.176 v -8.875 h -1.176 z"
         style="fill:#4f4c4d;fill-opacity:1;fill-rule:nonzero;stroke:none"
         transform="matrix(1.3333333,0,0,-1.3333333,-174.66667,581.33333)"
         clip-path="url(#clipPath12)"
         id="path40" />
      <path
         d="M 0,0 V 8.875 H 6.418 V 7.828 H 1.174 V 5.11 h 4.91 V 4.068 H 1.174 V 1.047 H 6.623 V 0 Z"
         style="fill:#4f4c4d;fill-opacity:1;fill-rule:nonzero;stroke:none"
         transform="matrix(1.3333333,0,0,-1.3333333,247.6068,21.135467)"
         clip-path="url(#clipPath13)"
         id="path41" />
      <path
         d="M 0,0 V 8.875 H 1.205 L 5.867,1.907 V 8.875 H 6.994 V 0 H 5.789 L 1.127,6.975 V 0 Z"
         style="fill:#4f4c4d;fill-opacity:1;fill-rule:nonzero;stroke:none"
         transform="matrix(1.3333333,0,0,-1.3333333,264.43747,21.135467)"
         clip-path="url(#clipPath14)"
         id="path42" />
      <path
         d="m 0,0 1.174,-0.297 c -0.246,-0.965 -0.69,-1.7 -1.328,-2.207 -0.641,-0.506 -1.422,-0.76 -2.348,-0.76 -0.955,0 -1.734,0.195 -2.334,0.585 -0.6,0.389 -1.055,0.953 -1.367,1.692 -0.313,0.738 -0.471,1.532 -0.471,2.38 0,0.924 0.178,1.73 0.531,2.418 0.354,0.689 0.856,1.211 1.508,1.568 0.651,0.358 1.369,0.536 2.153,0.536 0.886,0 1.634,-0.226 2.24,-0.678 C 0.363,4.785 0.785,4.149 1.023,3.33 L -0.135,3.058 C -0.34,3.703 -0.639,4.173 -1.029,4.468 -1.422,4.763 -1.914,4.91 -2.508,4.91 -3.189,4.91 -3.76,4.747 -4.219,4.42 -4.676,4.093 -4.998,3.654 -5.184,3.103 -5.369,2.552 -5.463,1.984 -5.463,1.398 c 0,-0.754 0.111,-1.413 0.33,-1.977 0.221,-0.563 0.563,-0.984 1.028,-1.262 0.462,-0.278 0.966,-0.418 1.507,-0.418 0.659,0 1.215,0.19 1.67,0.57 C -0.471,-1.31 -0.162,-0.747 0,0"
         style="fill:#4f4c4d;fill-opacity:1;fill-rule:nonzero;stroke:none"
         transform="matrix(1.3333333,0,0,-1.3333333,290.69267,16.986267)"
         clip-path="url(#clipPath15)"
         id="path43" />
      <path
         d="M 0,0 V 8.875 H 6.418 V 7.828 H 1.174 V 5.11 h 4.91 V 4.068 H 1.174 V 1.047 H 6.623 V 0 Z"
         style="fill:#4f4c4d;fill-opacity:1;fill-rule:nonzero;stroke:none"
         transform="matrix(1.3333333,0,0,-1.3333333,300.07293,21.135467)"
         clip-path="url(#clipPath16)"
         id="path44" />
      <path
         d="M 0,0 1.467,-0.371 C 1.16,-1.577 0.605,-2.497 -0.193,-3.13 c -0.801,-0.633 -1.778,-0.949 -2.934,-0.949 -1.195,0 -2.168,0.243 -2.916,0.73 -0.75,0.487 -1.32,1.192 -1.711,2.116 -0.391,0.922 -0.588,1.914 -0.588,2.974 0,1.155 0.221,2.163 0.664,3.023 0.442,0.861 1.069,1.514 1.883,1.961 0.816,0.446 1.713,0.67 2.691,0.67 1.11,0 2.043,-0.283 2.801,-0.848 C 0.453,5.981 0.98,5.187 1.279,4.163 L -0.168,3.822 c -0.256,0.807 -0.629,1.395 -1.119,1.763 -0.49,0.369 -1.106,0.553 -1.848,0.553 -0.851,0 -1.564,-0.204 -2.136,-0.613 C -5.844,5.116 -6.246,4.567 -6.479,3.879 -6.711,3.19 -6.828,2.48 -6.828,1.748 c 0,-0.943 0.139,-1.767 0.414,-2.471 0.273,-0.704 0.701,-1.23 1.281,-1.578 0.582,-0.348 1.209,-0.522 1.885,-0.522 0.822,0 1.519,0.237 2.09,0.712 C -0.588,-1.637 -0.203,-0.934 0,0"
         style="fill:#4f4c4d;fill-opacity:1;fill-rule:nonzero;stroke:none"
         transform="matrix(1.3333333,0,0,-1.3333333,339.336,15.9492)"
         clip-path="url(#clipPath17)"
         id="path45" />
      <path
         d="M 0,0 V 8.875 H 6.418 V 7.828 H 1.174 V 5.11 h 4.91 V 4.068 H 1.174 V 1.047 H 6.623 V 0 Z"
         style="fill:#4f4c4d;fill-opacity:1;fill-rule:nonzero;stroke:none"
         transform="matrix(1.3333333,0,0,-1.3333333,350.7344,21.135467)"
         clip-path="url(#clipPath18)"
         id="path46" />
      <path
         d="M 0,0 V 8.875 H 1.205 L 5.867,1.907 V 8.875 H 6.994 V 0 H 5.789 L 1.127,6.975 V 0 Z"
         style="fill:#4f4c4d;fill-opacity:1;fill-rule:nonzero;stroke:none"
         transform="matrix(1.3333333,0,0,-1.3333333,367.56507,21.135467)"
         clip-path="url(#clipPath19)"
         id="path47" />
      <path
         d="M 0,0 V 7.828 H -2.924 V 8.875 H 4.111 V 7.828 H 1.176 V 0 Z"
         style="fill:#4f4c4d;fill-opacity:1;fill-rule:nonzero;stroke:none"
         transform="matrix(1.3333333,0,0,-1.3333333,388.38547,21.135467)"
         clip-path="url(#clipPath20)"
         id="path48" />
      <path
         d="m 0,0 h 2.525 c 0.538,0 0.957,0.055 1.26,0.167 0.303,0.11 0.533,0.288 0.69,0.532 0.158,0.244 0.236,0.509 0.236,0.796 0,0.42 -0.152,0.765 -0.457,1.036 C 3.949,2.801 3.467,2.937 2.811,2.937 H 0 Z m -1.174,-4.958 v 8.875 h 3.936 c 0.791,0 1.392,-0.08 1.804,-0.239 C 4.977,3.519 5.307,3.237 5.553,2.833 5.799,2.43 5.922,1.984 5.922,1.495 5.922,0.866 5.719,0.335 5.311,-0.097 4.902,-0.529 4.273,-0.804 3.422,-0.92 3.732,-1.07 3.969,-1.217 4.129,-1.362 4.473,-1.677 4.797,-2.071 5.105,-2.543 L 6.648,-4.958 H 5.172 l -1.176,1.846 c -0.342,0.532 -0.625,0.94 -0.848,1.223 -0.22,0.282 -0.419,0.48 -0.595,0.593 -0.176,0.113 -0.354,0.192 -0.535,0.236 -0.135,0.028 -0.352,0.042 -0.655,0.042 H 0 v -3.94 z"
         style="fill:#4f4c4d;fill-opacity:1;fill-rule:nonzero;stroke:none"
         transform="matrix(1.3333333,0,0,-1.3333333,402.91667,14.524133)"
         clip-path="url(#clipPath21)"
         id="path49" />
      <path
         d="M 0,0 V 8.875 H 6.418 V 7.828 H 1.176 V 5.11 h 4.91 V 4.068 H 1.176 V 1.047 H 6.625 V 0 Z"
         style="fill:#4f4c4d;fill-opacity:1;fill-rule:nonzero;stroke:none"
         transform="matrix(1.3333333,0,0,-1.3333333,419.15107,21.135467)"
         clip-path="url(#clipPath22)"
         id="path50" />
      <path
         d="M 0,0 H 1.48 C 1.97,0 2.318,0.091 2.523,0.273 2.729,0.455 2.832,0.712 2.832,1.043 2.832,1.282 2.771,1.487 2.65,1.658 2.529,1.828 2.37,1.941 2.172,1.996 2.044,2.029 1.809,2.047 1.465,2.047 H 0 Z m -0.758,-3.004 v 5.727 h 2.16 C 1.783,2.723 2.073,2.704 2.273,2.668 2.555,2.621 2.791,2.531 2.98,2.4 3.17,2.269 3.324,2.084 3.439,1.848 3.555,1.61 3.613,1.35 3.613,1.066 3.613,0.579 3.458,0.167 3.148,-0.17 2.838,-0.508 2.279,-0.676 1.469,-0.676 H 0 v -2.328 z"
         style="fill:#4f4c4d;fill-opacity:1;fill-rule:nonzero;stroke:none"
         transform="matrix(1.3333333,0,0,-1.3333333,55.449867,29.796933)"
         clip-path="url(#clipPath23)"
         id="path51" />
      <path
         d="m 0,0 c 0,-0.69 0.186,-1.234 0.557,-1.631 0.371,-0.397 0.836,-0.596 1.396,-0.596 0.57,0 1.04,0.201 1.408,0.602 0.369,0.4 0.553,0.97 0.553,1.707 0,0.466 -0.079,0.873 -0.236,1.221 C 3.52,1.65 3.29,1.92 2.986,2.111 2.683,2.303 2.342,2.398 1.965,2.398 1.428,2.398 0.967,2.214 0.58,1.846 0.193,1.477 0,0.861 0,0 m -0.781,0.012 c 0,0.95 0.255,1.694 0.765,2.232 0.511,0.537 1.17,0.807 1.977,0.807 0.529,0 1.005,-0.127 1.43,-0.379 C 3.815,2.419 4.139,2.066 4.361,1.615 4.584,1.163 4.695,0.65 4.695,0.078 4.695,-0.503 4.578,-1.022 4.344,-1.48 4.109,-1.939 3.777,-2.286 3.348,-2.521 2.918,-2.758 2.455,-2.875 1.957,-2.875 c -0.539,0 -1.021,0.13 -1.445,0.391 -0.425,0.259 -0.746,0.615 -0.965,1.066 -0.219,0.45 -0.328,0.927 -0.328,1.43"
         style="fill:#4f4c4d;fill-opacity:1;fill-rule:nonzero;stroke:none"
         transform="matrix(1.3333333,0,0,-1.3333333,67.728533,30.098933)"
         clip-path="url(#clipPath24)"
         id="path52" />
      <path
         d="M 0,0 V 5.727 H 0.758 V 0.676 h 2.82 V 0 Z"
         style="fill:#4f4c4d;fill-opacity:1;fill-rule:nonzero;stroke:none"
         transform="matrix(1.3333333,0,0,-1.3333333,81.329467,33.802133)"
         clip-path="url(#clipPath25)"
         id="path53" />
      <path
         d="M 0,0 H 1.941 L 1.344,1.586 C 1.162,2.067 1.026,2.463 0.938,2.773 0.865,2.406 0.762,2.041 0.629,1.68 Z M -1.652,-2.352 0.547,3.375 H 1.363 L 3.707,-2.352 H 2.844 l -0.668,1.735 h -2.395 l -0.629,-1.735 z"
         style="fill:#4f4c4d;fill-opacity:1;fill-rule:nonzero;stroke:none"
         transform="matrix(1.3333333,0,0,-1.3333333,94.534533,30.666667)"
         clip-path="url(#clipPath26)"
         id="path54" />
      <path
         d="M 0,0 V 5.727 H 0.777 L 3.785,1.23 V 5.727 H 4.512 V 0 H 3.734 L 0.727,4.5 V 0 Z"
         style="fill:#4f4c4d;fill-opacity:1;fill-rule:nonzero;stroke:none"
         transform="matrix(1.3333333,0,0,-1.3333333,106.14067,33.802133)"
         clip-path="url(#clipPath27)"
         id="path55" />
      <path
         d="m 0,0 h 1.223 c 0.377,0 0.673,0.035 0.888,0.105 0.215,0.071 0.387,0.169 0.514,0.297 0.18,0.18 0.32,0.421 0.42,0.725 0.1,0.303 0.15,0.671 0.15,1.103 C 3.195,2.829 3.097,3.289 2.9,3.611 2.704,3.933 2.465,4.148 2.184,4.258 1.98,4.336 1.654,4.375 1.203,4.375 H 0 Z M -0.758,-0.676 V 5.051 H 1.215 C 1.66,5.051 2,5.023 2.234,4.969 2.563,4.893 2.842,4.756 3.074,4.559 3.376,4.303 3.602,3.977 3.752,3.58 3.902,3.183 3.977,2.729 3.977,2.219 3.977,1.783 3.926,1.398 3.824,1.063 3.723,0.727 3.592,0.448 3.434,0.229 3.275,0.008 3.101,-0.165 2.912,-0.291 2.723,-0.418 2.496,-0.514 2.229,-0.578 1.961,-0.644 1.655,-0.676 1.309,-0.676 Z"
         style="fill:#4f4c4d;fill-opacity:1;fill-rule:nonzero;stroke:none"
         transform="matrix(1.3333333,0,0,-1.3333333,120.73107,32.901067)"
         clip-path="url(#clipPath28)"
         id="path56" />
    </g>
  </g>
</svg>
